<svg version="1.1" id="Layer_1" xmlns="http://www.w3.org/2000/svg" xmlns:xlink="http://www.w3.org/1999/xlink" x="0px" y="0px"
	 width="100%" viewBox="0 0 445 459" enable-background="new 0 0 445 459" xml:space="preserve">
<path fill="#0F7943" opacity="1.000000" stroke="none" 
	d="
M446.000000,121.000000 
	C446.000000,232.969193 445.983826,344.438385 446.081055,455.907501 
	C446.083862,459.129059 445.708435,460.108673 442.094543,460.105621 
	C296.301636,459.981842 150.508560,459.987152 4.715591,460.084045 
	C1.510028,460.086182 0.926602,459.258636 0.928257,456.217590 
	C1.010110,305.759216 1.008069,155.300781 0.939901,4.842397 
	C0.938588,1.944770 1.301493,0.903427 4.655628,0.905934 
	C150.615189,1.015026 296.574860,1.012972 442.534454,0.911610 
	C445.610229,0.909474 446.084412,1.644465 446.075928,4.532815 
	C445.962402,43.188286 446.000000,81.844200 446.000000,121.000000 
z"/>
<path fill="#107A44" opacity="1.000000" stroke="none" 
	d="
M409.812439,47.825798 
	C410.244446,48.851780 410.483612,49.608376 410.856018,50.633850 
	C414.152557,55.460514 414.903748,60.712246 415.253662,66.514595 
	C414.307373,70.249702 414.505585,73.594818 414.505035,76.921288 
	C414.487762,181.211243 414.520264,285.501221 414.472412,390.247101 
	C412.499542,397.456085 414.784271,404.740356 411.794617,411.755493 
	C411.676758,412.385437 411.639099,412.634644 411.549500,413.250793 
	C411.425964,414.336060 411.187744,415.005005 410.748840,415.952606 
	C410.535431,416.452240 410.466461,416.656525 410.273132,417.152649 
	C410.054138,417.627960 409.959534,417.811493 409.559448,418.508789 
	C409.152039,419.186035 409.050018,419.349548 408.798340,419.754089 
	C408.551025,420.153625 408.453369,420.312134 408.211090,420.705109 
	C407.970673,421.093811 407.874847,421.248047 407.635040,421.630249 
	C407.393707,422.007538 407.296417,422.156830 407.051086,422.526123 
	C406.803162,422.891357 406.703308,423.036560 406.302368,423.614227 
	C405.801697,424.339264 405.605957,424.634308 405.285858,425.178894 
	C405.070129,425.595306 404.982239,425.764557 404.757080,426.195343 
	C404.523376,426.637085 404.426941,426.817322 404.006531,427.560913 
	C403.544556,428.308685 403.406525,428.493134 403.027222,428.938110 
	C397.620026,434.065735 392.618958,439.189972 384.737000,440.551147 
	C380.199951,442.169891 375.957092,442.540588 371.573059,442.538574 
	C272.499573,442.493164 173.426071,442.496185 74.352570,442.511536 
	C70.679565,442.512115 67.022034,442.570496 63.109276,441.048248 
	C62.413994,440.849731 62.140953,440.779419 61.470383,440.613159 
	C60.561264,440.429626 60.068626,440.280640 59.303745,439.866089 
	C58.817009,439.548645 58.624023,439.427063 58.126122,439.168213 
	C57.417568,438.864624 57.012329,438.702332 56.298973,438.447449 
	C55.804276,438.245758 55.616058,438.140717 55.186562,437.818542 
	C54.407642,437.154572 53.751522,437.024017 52.750847,436.787689 
	C41.287983,430.650269 36.531441,419.946136 32.032269,409.037170 
	C31.359514,407.405945 31.490543,405.803528 31.835695,403.727722 
	C30.963179,295.172577 31.759045,187.044724 31.529572,78.918167 
	C31.522854,75.752014 31.122292,72.605492 31.274570,68.999496 
	C30.171316,62.607273 32.194187,57.112759 33.917503,51.220306 
	C34.416260,50.277985 34.708321,49.642376 35.175385,48.734970 
	C35.542622,48.097904 35.781261,47.760628 36.209938,47.199417 
	C36.458981,46.783466 36.545559,46.611237 36.784504,46.198738 
	C37.047798,45.808723 37.158722,45.658981 37.411209,45.270271 
	C37.647549,44.873169 37.742329,44.715034 37.984863,44.324181 
	C38.232853,43.937401 38.333088,43.783340 38.741928,43.170937 
	C39.153408,42.558773 39.256275,42.404949 39.508942,42.014473 
	C39.761250,41.619747 39.863766,41.461674 40.127846,41.069283 
	C40.404320,40.683205 40.519222,40.531452 41.018288,39.963371 
	C41.659355,39.278229 41.898323,38.994339 42.256977,38.451469 
	C42.492897,38.048737 42.590607,37.889416 42.848152,37.500877 
	C43.121735,37.126049 43.235489,36.980442 43.709682,36.425423 
	C44.192787,35.886425 44.315453,35.756828 44.803688,35.249046 
	C45.288479,34.745502 45.407696,34.620136 45.874130,34.113113 
	C46.334618,33.601566 46.447880,33.471684 46.905682,32.951431 
	C47.371174,32.435184 47.492119,32.309307 47.804806,32.004227 
	C48.262890,31.602509 48.539486,31.393679 49.040894,31.057808 
	C49.542599,30.744783 49.841080,30.593700 50.356716,30.335930 
	C50.562191,30.205835 50.965057,29.940042 51.167759,29.812733 
	C51.370461,29.685421 51.774689,29.434908 51.976097,29.310234 
	C52.177502,29.185562 52.580963,28.938210 52.786621,28.820528 
	C52.992283,28.702847 53.423466,28.508987 53.633091,28.397449 
	C53.842716,28.285910 54.231018,28.004202 54.422363,27.853783 
	C54.613712,27.703365 54.994881,27.388023 55.194168,27.233601 
	C55.536606,26.986223 55.679749,26.893267 56.055222,26.685059 
	C56.446507,26.496256 56.605465,26.422705 56.991707,26.206051 
	C57.377560,25.971985 57.536133,25.881023 57.948929,25.678246 
	C58.561287,25.437513 58.901897,25.271854 59.494781,24.941273 
	C59.954224,24.745180 60.147659,24.685205 60.644783,24.581833 
	C62.252537,24.516235 63.370026,23.943682 64.756493,23.156044 
	C65.245895,22.881926 65.456451,22.793779 66.008209,22.645241 
	C66.823135,22.546642 67.297607,22.522312 68.143539,22.493958 
	C69.857521,22.563122 70.936905,21.598063 72.669411,21.528357 
	C73.388100,21.512281 73.682030,21.509237 74.429398,21.504448 
	C172.112595,21.498001 269.342346,21.503906 366.572113,21.491020 
	C369.903687,21.490580 373.225983,21.555590 376.992859,21.899872 
	C378.022247,21.762587 378.599182,21.683821 379.585327,21.624107 
	C381.301178,21.665434 382.361725,22.396770 383.782898,23.085705 
	C384.379547,23.543596 384.690826,23.823450 385.225494,24.278557 
	C385.635406,24.511450 385.809784,24.582514 386.239075,24.769030 
	C386.825409,25.047113 387.151703,25.219318 387.734283,25.493786 
	C388.167297,25.657858 388.339355,25.728495 388.766022,25.917608 
	C389.187164,26.123318 389.353729,26.210552 389.789062,26.400654 
	C390.244781,26.565437 390.431702,26.627356 390.897278,26.803335 
	C391.540344,27.115395 391.887909,27.339867 392.506775,27.741531 
	C396.771942,30.087406 400.164124,33.031540 403.610352,36.445488 
	C404.514893,39.159973 407.145447,40.474789 407.806946,43.298801 
	C408.881439,43.990788 409.493561,44.629745 409.754822,45.906651 
	C409.679230,46.672073 409.620026,47.110466 409.812439,47.825798 
z"/>
<path fill="#076333" opacity="1.000000" stroke="none" 
	d="
M32.966595,404.672546 
	C32.841755,409.914062 35.718773,413.533783 37.702599,417.450714 
	C41.422398,424.795105 45.874123,431.592499 53.589828,435.943481 
	C54.283550,436.250885 54.646469,436.485992 55.170048,436.992920 
	C55.206661,437.715485 54.954033,438.043335 54.259163,438.148376 
	C45.408890,436.020508 40.779224,429.382385 36.428326,422.698090 
	C29.774624,412.475983 29.425220,400.917328 29.823669,389.165619 
	C30.121929,380.368805 30.246078,371.560089 29.552706,362.733063 
	C29.026186,356.030182 30.038857,349.213867 29.837624,342.518890 
	C29.180710,320.663635 30.105433,298.817383 29.715015,276.959503 
	C29.452482,262.261139 30.037434,247.479568 29.748365,232.768417 
	C29.548378,222.590851 29.421804,212.386047 29.147018,202.199600 
	C28.902611,193.139297 29.786686,184.054382 29.860359,174.977783 
	C29.916510,168.060013 29.001089,161.110031 29.403971,154.226227 
	C29.807539,147.330688 29.023754,140.473969 29.688810,133.556274 
	C30.383867,126.326538 29.892061,118.979858 29.867586,111.684471 
	C29.833719,101.589653 29.792126,91.494537 29.677795,81.400414 
	C29.582670,73.001762 28.553286,64.569038 30.997000,56.294617 
	C31.604643,54.237137 31.697847,52.006077 33.673286,50.189507 
	C34.153267,49.863213 34.335377,49.739048 34.781364,49.814064 
	C34.519131,55.520409 32.145611,60.685730 32.050354,66.693832 
	C32.906967,69.038170 32.477104,71.063766 32.477627,73.033768 
	C32.502609,167.109985 32.471951,261.186249 32.525589,355.262451 
	C32.534882,371.566559 32.036354,387.878876 32.966595,404.672546 
z"/>
<path fill="#076433" opacity="1.000000" stroke="none" 
	d="
M385.889648,439.209595 
	C392.896912,437.308289 397.310699,432.551239 401.810303,427.392792 
	C402.204498,426.858429 402.424469,426.603638 402.833252,426.180420 
	C403.018646,426.009094 402.998779,425.998779 403.004150,426.008728 
	C403.224121,425.778351 403.447479,425.546478 403.856720,425.158875 
	C404.033905,424.994781 403.989166,424.994843 403.998505,425.015198 
	C404.423553,424.585999 404.488739,423.994965 404.839966,423.222321 
	C405.029236,423.001648 404.997101,422.991425 405.000610,423.007874 
	C405.219147,422.783325 405.442993,422.550812 405.853302,422.162292 
	C406.030884,421.997772 405.990631,421.998169 406.000793,422.015533 
	C406.426727,421.583252 406.488556,420.990875 406.842529,420.219330 
	C407.031830,419.998657 406.993652,419.997375 407.004089,420.013367 
	C407.426910,419.581909 407.488708,418.994080 407.837341,418.226837 
	C408.025909,418.008057 408.002289,417.994659 408.006226,418.007111 
	C408.224548,417.778076 408.448120,417.545441 408.858459,417.157166 
	C409.036011,416.992706 408.988922,416.994141 408.998871,417.015503 
	C409.715515,416.314117 409.397186,415.351654 409.814270,414.255463 
	C410.028961,413.999969 409.995544,413.999847 410.007202,414.011963 
	C413.336761,406.957794 412.666840,399.281219 413.455658,391.357330 
	C413.508240,284.928864 413.496368,178.964966 413.503113,73.001060 
	C413.503235,71.002190 413.451324,69.002502 413.751465,66.548172 
	C414.052246,61.082138 412.621613,56.374653 411.049377,51.292976 
	C412.933350,51.245743 413.029816,53.047031 413.868164,54.681839 
	C415.004700,55.889336 414.994293,57.090317 414.999176,58.644070 
	C415.009583,59.437954 415.017914,59.875080 415.028503,60.640106 
	C416.432434,66.349884 417.928009,71.723007 416.292938,77.695259 
	C416.023926,81.041824 416.023407,84.056473 416.023041,87.522850 
	C416.598541,88.674202 416.779022,89.450630 416.248932,90.670715 
	C416.017548,98.484657 416.016113,105.948303 416.016205,113.411949 
	C416.016602,142.641205 415.830017,171.872223 416.102997,201.098938 
	C416.226105,214.279022 417.121185,227.536362 416.636230,240.637405 
	C415.651459,267.242401 416.381622,293.824799 416.076538,320.412811 
	C415.790680,345.325775 415.991425,370.244598 416.025635,395.160767 
	C416.039307,405.120178 414.550842,414.645081 409.344330,423.407898 
	C404.689545,431.242188 397.926147,436.363373 389.800903,440.096130 
	C384.377533,442.587708 379.169952,445.603394 372.438538,445.005280 
	C371.626129,444.581024 371.455994,444.090729 371.639404,443.157104 
	C376.306183,441.384979 381.067444,440.973785 385.889648,439.209595 
z"/>
<path fill="#056434" opacity="1.000000" stroke="none" 
	d="
M35.269489,49.900795 
	C34.866344,50.009041 34.687443,50.004841 34.239845,49.994011 
	C36.159256,39.396294 43.349915,32.704418 51.953434,27.231327 
	C60.934246,21.518227 70.828636,19.485804 81.443581,19.916426 
	C91.481598,20.323645 101.647377,19.886974 111.562469,19.353214 
	C122.616539,18.758139 133.490967,20.949837 144.645035,19.509239 
	C151.822952,18.582176 159.726349,19.454405 167.293472,19.770977 
	C179.005859,20.260963 190.775177,19.216402 202.522964,19.110518 
	C208.124756,19.060026 213.742889,20.062401 219.335663,19.913357 
	C238.232956,19.409758 257.128174,20.280466 276.012970,19.903030 
	C296.926422,19.485052 317.833038,20.204336 338.755219,19.774635 
	C349.187195,19.560385 359.638824,19.193502 370.539978,19.031467 
	C374.194031,20.685778 378.530396,18.738436 381.073120,22.637373 
	C380.549377,23.024780 380.090820,23.023539 379.288391,23.028919 
	C375.931000,24.221540 373.138245,22.407831 370.153503,22.411156 
	C271.766571,22.520784 173.379471,22.493652 74.992416,22.502647 
	C74.492378,22.502693 73.994591,22.539364 73.045944,22.774345 
	C72.595856,22.983093 72.458420,22.929884 72.384903,22.935024 
	C71.467682,23.611029 70.465210,23.481052 69.125458,23.499325 
	C68.027336,23.500858 67.295349,23.487637 66.265594,23.779743 
	C65.964531,23.986382 66.005219,24.009790 66.007027,23.986389 
	C64.300758,24.873695 62.400352,25.135031 60.258308,25.783714 
	C59.962681,25.988747 60.006321,26.011038 60.008263,25.986614 
	C59.589096,26.426586 58.992622,26.486683 58.202610,26.816229 
	C57.966900,26.988455 58.005562,27.008615 58.005512,26.986816 
	C57.585606,27.430822 56.987663,27.486418 56.199776,27.819016 
	C55.964375,27.991299 56.004955,28.010477 56.004921,27.988033 
	C55.790344,28.207119 55.566631,28.439827 55.155975,28.828138 
	C54.978214,28.992563 55.006298,29.000360 55.000690,28.986782 
	C54.579399,29.436594 53.985340,29.486195 53.204922,29.815235 
	C52.971752,29.986080 52.999580,30.006527 52.998859,29.989313 
	C52.783791,30.213659 52.560181,30.446318 52.149296,30.834114 
	C51.971287,30.998156 52.015343,31.010475 52.014610,30.987614 
	C51.569859,31.456861 50.930939,31.487589 50.097450,31.834181 
	C49.604870,32.103348 49.401043,32.248817 49.120758,32.593773 
	C48.825027,33.063271 48.609097,33.357189 48.168385,33.820431 
	C47.968109,34.007587 48.013973,34.012779 48.010048,33.990036 
	C47.788017,34.209637 47.561687,34.444050 47.148392,34.837227 
	C46.969643,35.003929 47.010925,35.011021 47.007439,34.990368 
	C46.785835,35.211838 46.559570,35.446095 46.146439,35.839046 
	C45.967720,36.005604 46.012405,36.012558 46.009010,35.990204 
	C45.787411,36.210247 45.560997,36.444721 45.147522,36.837971 
	C44.968662,37.004669 45.011566,37.011787 45.008141,36.990314 
	C44.785225,37.212467 44.557533,37.448170 44.141655,37.843384 
	C43.961658,38.010815 44.014477,38.007717 44.005268,37.982918 
	C43.424782,38.800621 42.884212,39.662601 42.163288,40.768501 
	C41.965530,41.001381 42.007465,41.012585 42.005112,40.991009 
	C41.785728,41.211834 41.560085,41.445934 41.147110,41.837708 
	C40.968391,42.003681 41.009262,42.004536 41.000153,41.986237 
	C40.573631,42.416279 40.511406,43.008129 40.160137,43.780750 
	C39.972149,44.002350 40.006851,44.008858 40.002869,43.991661 
	C39.780819,44.216839 39.554501,44.451241 39.140881,44.844036 
	C38.961838,45.010406 39.013741,45.008148 39.004723,44.983788 
	C38.576820,45.412514 38.511353,46.009129 38.154594,46.788166 
	C37.965286,47.012005 38.014076,47.007454 38.003983,46.985130 
	C37.552235,47.427040 37.515545,48.073151 37.022186,48.820290 
	C36.360149,49.278542 35.926937,49.533443 35.269489,49.900795 
z"/>
<path fill="#288857" opacity="1.000000" stroke="none" 
	d="
M385.802643,439.007629 
	C382.249817,441.993347 377.416534,442.149902 372.394592,443.076904 
	C371.009308,443.913605 369.831482,443.983704 368.200165,444.078125 
	C366.572662,444.497101 365.354736,444.505981 363.663300,444.498169 
	C325.659271,443.930206 288.127136,443.856110 250.112518,444.557678 
	C249.311295,444.632538 248.992722,444.680267 248.197266,444.805634 
	C247.400452,444.852142 247.079849,444.840942 246.518372,444.865723 
	C245.646042,444.919617 245.017792,444.885193 243.924469,444.692169 
	C211.443726,443.346771 179.430634,444.804871 146.932846,444.555603 
	C145.474319,444.518433 144.501007,444.499146 143.038391,444.493439 
	C135.092758,443.310242 127.619843,444.484039 120.159065,444.319275 
	C113.345734,444.168823 106.494102,443.384552 99.732101,443.797272 
	C92.803139,444.220154 85.903252,444.506622 78.502121,444.386780 
	C77.102295,444.410828 76.214424,444.157623 74.887634,443.876953 
	C73.070984,443.313934 71.634773,443.568878 69.805542,443.495697 
	C65.963379,442.926025 62.300995,442.965881 59.920341,439.411133 
	C92.296577,443.367859 124.781059,440.628723 157.182037,440.856171 
	C228.162628,441.354370 299.149200,440.967865 370.132996,441.111389 
	C375.399231,441.122040 380.304932,439.776642 385.802643,439.007629 
z"/>
<path fill="#076433" opacity="1.000000" stroke="none" 
	d="
M142.625763,443.255127 
	C143.726807,443.046875 144.502808,443.033081 145.666504,443.039856 
	C151.978653,444.021362 157.944031,443.395966 163.888260,443.470154 
	C175.663437,443.617157 187.441147,443.412079 199.638382,443.806702 
	C199.108154,446.679535 196.865463,445.882568 194.971848,445.928314 
	C182.989014,446.217896 170.995392,446.897522 159.026382,446.600189 
	C152.112747,446.428436 144.930389,447.861664 138.083755,444.405151 
	C139.263382,442.967255 140.859421,443.764648 142.625763,443.255127 
z"/>
<path fill="#025D2F" opacity="1.000000" stroke="none" 
	d="
M248.263947,444.309509 
	C249.344360,442.579315 251.267532,443.020203 253.051682,443.019623 
	C289.704529,443.007416 326.357391,443.023254 363.474792,443.051392 
	C363.455627,445.877045 361.165314,444.885803 359.601501,444.945068 
	C350.902527,445.274933 342.196930,445.011719 333.494965,444.948914 
	C331.254517,444.932770 328.920258,446.050568 326.343872,444.335052 
	C323.936371,444.042114 321.925262,444.043732 319.483215,444.043396 
	C318.025024,444.830963 316.918091,445.074219 315.318542,444.289551 
	C314.522034,444.050507 314.103455,444.052765 313.371002,444.050049 
	C312.636292,444.400696 312.153290,444.538513 311.275085,444.252563 
	C309.901581,444.043457 308.861206,444.040375 307.430664,444.034119 
	C305.038116,445.385559 302.905121,445.148529 300.349609,444.290649 
	C298.915009,444.037506 297.873108,444.041138 296.440491,444.041565 
	C292.663483,445.122162 289.262177,445.915527 285.342773,444.312592 
	C284.219360,444.057129 283.503479,444.059998 282.429657,444.061035 
	C281.015717,444.922943 279.840607,445.631317 278.447357,445.459351 
	C268.555603,444.238312 258.577393,445.971741 248.263947,444.309509 
z"/>
<path fill="#0B6B39" opacity="1.000000" stroke="none" 
	d="
M381.221802,23.235874 
	C378.601501,19.673029 374.061157,22.351618 371.212738,19.336933 
	C374.369019,17.770407 377.611572,18.877203 380.583618,20.110491 
	C389.715027,23.899733 398.808868,27.866543 404.917786,36.671803 
	C404.597260,37.352470 404.124207,37.501080 403.263855,37.228405 
	C399.277008,34.388927 395.612030,31.762499 391.621338,29.073622 
	C390.963745,28.833502 390.655731,28.621193 390.177368,28.170471 
	C389.983154,27.966656 389.996246,28.005020 390.016479,28.004311 
	C389.587952,27.575668 388.989288,27.511532 388.207275,27.156013 
	C387.980988,26.968729 387.995575,27.006777 388.015839,27.004721 
	C387.587494,26.575315 386.989319,26.511536 386.207947,26.156456 
	C385.981934,25.969261 385.995880,26.007242 386.015686,26.003084 
	C385.571960,25.556021 384.969086,25.507120 384.195770,25.179375 
	C383.151672,24.445143 382.293701,23.945433 381.221802,23.235874 
z"/>
<path fill="#025D2F" opacity="1.000000" stroke="none" 
	d="
M200.465088,444.043854 
	C184.087646,444.030060 168.115860,444.029388 152.144241,443.978119 
	C150.336273,443.972321 148.529205,443.681763 146.387955,443.291870 
	C177.761215,443.042480 209.468231,443.019897 241.175262,443.025085 
	C242.319641,443.025269 243.463974,443.298737 244.969879,443.690369 
	C243.751282,445.496246 241.499954,445.475586 239.768387,445.257812 
	C233.432693,444.461243 227.054108,445.840271 220.360107,444.331421 
	C219.229874,444.032410 218.500732,444.034637 217.407043,444.034485 
	C216.629837,444.394836 216.151779,444.536072 215.279083,444.247314 
	C214.528412,444.042908 214.106934,444.046875 213.369324,444.046936 
	C210.705414,445.485870 208.231934,445.129303 205.344666,444.298462 
	C203.587708,444.042816 202.229263,444.042419 200.465088,444.043854 
z"/>
<path fill="#076433" opacity="1.000000" stroke="none" 
	d="
M326.038971,444.389832 
	C338.385895,443.646027 350.843323,444.636444 363.605652,443.299225 
	C365.027313,443.059723 366.115326,443.050171 367.609436,443.067566 
	C368.362366,443.470367 368.493896,443.915314 368.220703,444.712311 
	C361.779816,447.135925 355.223480,446.244080 348.909332,446.424866 
	C342.531677,446.607544 336.073639,445.632721 329.652954,446.618439 
	C327.917938,446.884796 326.728241,446.448181 326.038971,444.389832 
z"/>
<path fill="#076433" opacity="1.000000" stroke="none" 
	d="
M247.814896,444.266602 
	C258.928528,444.046844 270.023865,444.034454 281.595459,444.040649 
	C281.556641,446.564056 279.691193,447.386383 277.576447,446.890228 
	C268.872223,444.848114 260.048553,447.179993 251.341187,445.977905 
	C250.367172,445.843445 249.411392,445.576782 248.083755,445.127380 
	C247.720352,444.883301 247.796631,444.473969 247.814896,444.266602 
z"/>
<path fill="#025D2F" opacity="1.000000" stroke="none" 
	d="
M142.487579,443.040649 
	C141.720627,444.206360 140.171555,443.941650 138.315186,444.039642 
	C137.516068,444.058655 137.102219,444.059723 136.377350,444.059143 
	C134.379166,445.233826 132.576035,445.160187 130.329773,444.303345 
	C129.521820,444.057556 129.107513,444.061768 128.382507,444.062347 
	C123.375237,446.176788 118.549629,444.664459 113.356705,444.308777 
	C112.521759,444.053253 112.104454,444.056000 111.374191,444.053955 
	C109.704269,444.990234 108.296684,445.520966 106.326843,444.313965 
	C105.524712,444.044556 105.104012,444.047424 104.367813,444.045898 
	C103.026634,444.829437 101.922722,445.075378 100.328957,444.280273 
	C99.226532,444.037140 98.499001,444.038635 97.407715,444.036957 
	C90.429443,446.641205 83.812859,445.735260 77.133423,443.563354 
	C98.722130,443.061035 120.373245,443.040833 142.487579,443.040649 
z"/>
<path fill="#076433" opacity="1.000000" stroke="none" 
	d="
M220.045868,444.381378 
	C228.080353,444.009613 236.201706,443.989014 244.827240,443.952148 
	C245.573212,444.109344 245.789368,444.310364 246.129044,444.710358 
	C243.273712,446.358276 240.227051,446.812927 236.817566,446.285004 
	C232.778763,445.659607 228.619156,445.634949 224.559265,446.387939 
	C222.619431,446.747742 220.953049,447.058563 220.045868,444.381378 
z"/>
<path fill="#076433" opacity="1.000000" stroke="none" 
	d="
M76.686615,443.059753 
	C83.331398,445.067413 89.766068,443.487457 96.570938,444.022461 
	C94.830696,447.765930 91.103462,447.017242 87.777153,446.930756 
	C83.250450,446.813019 78.720711,446.350159 74.237457,444.257141 
	C73.786728,443.841187 73.576126,443.675537 73.682526,443.262817 
	C74.767090,443.023254 75.534645,443.030762 76.686615,443.059753 
z"/>
<path fill="#076433" opacity="1.000000" stroke="none" 
	d="
M59.988663,439.001404 
	C62.301437,441.393860 65.625473,441.370422 68.739105,442.745728 
	C69.216324,443.155670 69.426788,443.326752 69.320282,443.752899 
	C62.976074,445.267853 59.004570,440.813263 54.076622,438.357178 
	C54.231255,437.890747 54.478844,437.710571 54.846699,437.316406 
	C55.145458,436.940063 55.296146,436.739502 55.729565,436.787262 
	C56.012291,437.035583 56.006828,436.990295 55.985176,436.997467 
	C56.413956,437.424713 57.009258,437.488556 57.785561,437.844330 
	C58.008312,438.033600 58.005898,437.988708 57.985779,437.998718 
	C58.416225,438.427460 59.013638,438.487732 59.788857,438.849792 
	C60.013966,439.036072 60.008907,438.994415 59.988663,439.001404 
z"/>
<path fill="#0B6B39" opacity="1.000000" stroke="none" 
	d="
M416.369537,77.944504 
	C415.716949,72.572731 415.409424,67.118294 415.066315,61.315926 
	C416.849518,61.475906 416.865753,62.939072 417.024597,64.455116 
	C417.344604,67.508781 417.457489,70.590958 418.594360,73.532616 
	C419.325714,75.425011 418.879700,77.087479 416.369537,77.944504 
z"/>
<path fill="#076433" opacity="1.000000" stroke="none" 
	d="
M113.090668,444.391663 
	C117.667427,444.040955 122.395790,444.031372 127.597961,444.040253 
	C127.799568,445.238220 127.058311,446.948792 126.106598,446.560333 
	C121.925362,444.853790 117.191696,447.507935 113.090668,444.391663 
z"/>
<path fill="#076433" opacity="1.000000" stroke="none" 
	d="
M285.056488,444.376221 
	C288.330811,444.040436 291.726349,444.026581 295.585846,444.025574 
	C292.551117,446.324036 289.042450,448.445068 285.056488,444.376221 
z"/>
<path fill="#076433" opacity="1.000000" stroke="none" 
	d="
M402.976532,37.378262 
	C403.400604,37.010300 403.859253,37.005238 404.661377,36.997913 
	C405.004883,36.995647 405.000000,36.999893 405.001343,36.997822 
	C406.486664,37.706970 407.159668,39.015572 407.797668,40.751217 
	C408.021454,41.429184 408.035095,41.860683 408.056488,42.615875 
	C408.172424,43.140846 408.280640,43.342125 408.181030,43.815994 
	C405.691193,42.463707 403.690735,40.618702 402.976532,37.378262 
z"/>
<path fill="#076433" opacity="1.000000" stroke="none" 
	d="
M205.095734,444.384918 
	C207.347733,444.033844 209.749313,444.024506 212.602051,444.029114 
	C210.707703,447.207977 208.025177,446.523315 205.095734,444.384918 
z"/>
<path fill="#0B6B39" opacity="1.000000" stroke="none" 
	d="
M408.027954,44.393082 
	C407.987030,43.897224 408.000824,43.705864 408.039429,43.227036 
	C411.920441,43.788723 412.070679,44.010315 410.384277,46.920109 
	C409.894562,47.162506 409.714417,47.302765 409.271423,47.223541 
	C408.699951,46.235237 408.391327,45.466408 408.027954,44.393082 
z"/>
<path fill="#076433" opacity="1.000000" stroke="none" 
	d="
M300.097168,444.373779 
	C302.022552,444.025635 304.088165,444.017365 306.597168,444.020020 
	C305.046417,446.984955 302.717682,446.604523 300.097168,444.373779 
z"/>
<path fill="#076433" opacity="1.000000" stroke="none" 
	d="
M130.074738,444.382141 
	C131.687073,444.042908 133.438034,444.032440 135.627655,444.039734 
	C134.407547,446.892975 132.390579,446.519531 130.074738,444.382141 
z"/>
<path fill="#076433" opacity="1.000000" stroke="none" 
	d="
M106.022659,444.361023 
	C107.365952,444.033722 108.786507,444.025696 110.634140,444.033447 
	C109.690933,446.487946 108.250595,448.376129 106.022659,444.361023 
z"/>
<path fill="#0B6B39" opacity="1.000000" stroke="none" 
	d="
M415.215057,58.749294 
	C414.060272,58.088131 414.000977,56.908733 414.006836,55.350277 
	C415.977142,55.553684 416.268402,56.796654 415.215057,58.749294 
z"/>
<path fill="#0B6B39" opacity="1.000000" stroke="none" 
	d="
M408.001160,40.620560 
	C406.546936,40.297089 405.951660,38.904625 405.138550,37.286720 
	C407.222534,36.952061 408.082733,38.160892 408.001160,40.620560 
z"/>
<path fill="#076433" opacity="1.000000" stroke="none" 
	d="
M315.058105,444.356750 
	C316.036804,444.037109 317.133026,444.026001 318.640747,444.028168 
	C318.078308,446.227173 316.818542,446.636841 315.058105,444.356750 
z"/>
<path fill="#076433" opacity="1.000000" stroke="none" 
	d="
M100.066849,444.346497 
	C101.046585,444.028625 102.139107,444.021637 103.641968,444.028076 
	C103.079338,446.246033 101.810257,446.588440 100.066849,444.346497 
z"/>
<path fill="#025D2F" opacity="1.000000" stroke="none" 
	d="
M368.400696,445.006531 
	C368.002197,444.579559 368.003510,444.154022 368.010193,443.411499 
	C369.074097,443.077454 370.132660,443.060425 371.587036,443.074097 
	C371.988007,443.525665 371.993134,443.946472 371.999115,444.684082 
	C370.933502,445.003235 369.867035,445.005646 368.400696,445.006531 
z"/>
<path fill="#0B6B39" opacity="1.000000" stroke="none" 
	d="
M416.316284,90.932053 
	C416.014954,90.259544 416.011597,89.498077 416.015747,88.355591 
	C417.799194,88.605408 418.589996,89.439232 416.316284,90.932053 
z"/>
<path fill="#076333" opacity="1.000000" stroke="none" 
	d="
M69.419205,444.007141 
	C69.002632,443.837646 69.001930,443.667358 69.003548,443.240784 
	C70.392944,442.986877 71.780014,442.989197 73.583313,443.003632 
	C73.999527,443.015747 73.999557,443.510925 73.998444,443.758911 
	C72.609909,444.006714 71.222496,444.006531 69.419205,444.007141 
z"/>
<path fill="#076433" opacity="1.000000" stroke="none" 
	d="
M311.019775,444.300140 
	C311.411835,444.037994 311.881653,444.029510 312.704285,444.033020 
	C312.652100,445.170715 312.217102,446.180817 311.019775,444.300140 
z"/>
<path fill="#076433" opacity="1.000000" stroke="none" 
	d="
M215.026550,444.293213 
	C215.414780,444.030945 215.879669,444.022888 216.693512,444.023499 
	C216.652435,445.168640 216.228958,446.179413 215.026550,444.293213 
z"/>
<path fill="#076433" opacity="1.000000" stroke="none" 
	d="
M409.143982,47.211632 
	C409.185974,47.005093 409.363403,47.006111 409.807800,47.014690 
	C410.062744,47.200661 410.050781,47.379074 410.022034,47.826336 
	C409.731964,47.903542 409.490021,47.678207 409.143982,47.211632 
z"/>
<path fill="#FDFEFE" opacity="1.000000" stroke="none" 
	d="
M133.558807,87.920639 
	C134.423798,88.007225 134.833923,88.078438 135.555542,88.200928 
	C136.078064,88.337097 136.289062,88.421997 136.724533,88.767784 
	C137.050446,89.237076 137.151886,89.445480 137.378601,89.984558 
	C137.582275,90.542160 137.660690,90.769073 137.911224,91.318199 
	C138.875122,92.530800 139.184647,93.591492 139.513763,94.738815 
	C140.988297,99.879250 141.754242,105.103058 144.436691,110.054024 
	C146.946564,114.686417 148.613586,120.103828 148.552505,125.771111 
	C148.483322,132.190506 151.835938,137.411316 155.456451,142.837921 
	C156.031387,143.535965 156.264008,143.994446 156.491974,144.868683 
	C156.719147,146.008560 157.097183,146.688889 157.412689,147.797058 
	C157.475616,148.441437 157.484009,148.701111 157.501068,149.351379 
	C159.556183,160.782303 162.865234,171.388840 166.783966,181.952164 
	C170.104218,190.902252 172.175629,200.384033 175.519073,209.388870 
	C181.182251,224.641449 183.934158,240.822128 190.643707,256.137146 
	C190.918228,256.730286 191.011673,256.974304 191.219666,257.592072 
	C191.832947,262.113861 192.772003,266.151550 194.354477,270.028351 
	C194.480392,270.336853 194.740921,270.652802 194.724869,270.947083 
	C194.218613,280.223022 200.571228,287.257751 202.833740,295.640686 
	C203.664841,298.720062 203.240967,301.883881 204.307083,304.952850 
	C205.092178,307.212830 205.802902,309.312256 207.910431,311.144958 
	C209.902802,312.692749 211.211655,314.437439 213.239105,315.904877 
	C215.640503,317.173889 217.732712,318.267883 219.691864,315.288513 
	C220.142151,314.601807 220.462601,314.258484 221.107895,313.745758 
	C225.849075,309.839294 225.383133,304.357788 226.499207,299.079102 
	C226.509949,298.213257 226.538422,297.715973 226.697769,296.853363 
	C231.412445,289.543304 232.616928,281.457794 234.506165,273.210297 
	C234.512985,272.295410 234.564133,271.775269 234.819031,270.895691 
	C239.096619,263.591949 240.576019,255.686234 242.988541,248.142303 
	C246.412109,237.436844 250.443893,226.897491 252.556549,215.398590 
	C252.630814,214.744034 252.675827,214.483826 252.878601,213.860596 
	C254.430878,212.015549 255.157898,210.259094 255.710495,208.282669 
	C257.936920,200.319855 260.493622,192.481171 263.600708,184.783920 
	C265.228455,180.751495 265.794250,176.184769 266.512115,171.399719 
	C266.535583,170.492966 266.617706,169.985931 266.908752,169.131836 
	C272.110992,160.252487 275.705872,151.237595 276.343445,140.841507 
	C276.430878,139.967560 276.476135,139.468246 276.567139,138.597137 
	C276.799347,137.759674 277.031799,137.321869 277.511200,136.595764 
	C277.865326,135.809036 277.999847,135.334381 278.232483,134.504761 
	C281.971527,128.200043 284.091766,121.769501 284.511780,114.430405 
	C284.536560,113.577805 284.601990,113.099106 284.858948,112.295517 
	C287.597504,107.068298 288.577850,101.395805 292.211121,96.986198 
	C293.409180,95.532150 292.314850,93.761833 292.740173,91.799530 
	C292.924316,91.188919 293.030090,90.950623 293.372162,90.392105 
	C295.003021,89.169365 295.737000,87.542198 297.633423,86.549042 
	C315.418640,85.484894 332.807251,86.243210 350.581146,86.770996 
	C350.964966,87.054199 350.959045,86.995186 350.945374,87.021591 
	C351.108002,87.216949 351.284332,87.385910 351.679626,87.848480 
	C354.154724,90.574089 355.327484,93.169281 353.708954,96.518204 
	C353.159882,97.654274 353.454803,99.078354 353.793060,100.696686 
	C353.929810,101.457985 353.969543,101.889709 353.977448,102.628502 
	C353.966583,103.524635 353.918579,104.114067 353.829163,104.992195 
	C353.726929,105.466225 353.664429,105.651451 353.478760,106.105431 
	C353.269928,106.553574 353.184235,106.732956 352.981750,107.191101 
	C352.765167,107.648079 352.665375,107.826317 352.381226,108.252518 
	C351.216553,109.904213 350.651855,111.506485 349.828064,113.349670 
	C347.380585,115.058296 347.115112,117.094940 347.980804,119.779205 
	C348.145325,120.578178 348.157349,121.043686 348.049652,121.854355 
	C346.786682,124.598793 344.967926,126.751045 345.000366,129.976837 
	C344.988129,130.527008 344.981415,130.746094 344.942993,131.290710 
	C344.762756,132.258026 344.382233,132.799210 344.075562,133.718979 
	C343.979126,134.254440 343.945068,134.470398 343.800842,134.997391 
	C343.459778,135.693863 343.267029,136.097794 343.041931,136.857178 
	C342.895447,137.669144 342.722778,138.106857 342.254150,138.811218 
	C335.968170,146.518127 336.213379,155.997650 333.671692,164.565811 
	C332.170807,169.625183 329.751068,174.306473 327.480438,179.043167 
	C327.198822,179.630600 326.624756,180.127625 326.635284,180.803864 
	C326.756317,188.601318 323.074219,195.496338 321.362000,203.237335 
	C318.996094,206.162170 317.823547,209.074387 318.471802,212.921097 
	C318.288330,213.995773 318.058807,214.692047 317.631927,215.713226 
	C315.478912,218.113663 315.662354,220.975098 314.738464,223.430893 
	C309.726807,236.752258 305.698700,250.391434 301.799988,264.066040 
	C300.650299,268.098419 298.317413,271.533722 296.740753,275.332001 
	C294.696198,280.257416 294.299469,285.563995 293.513245,291.158997 
	C293.484039,291.796631 293.468719,292.050537 293.376221,292.676331 
	C292.241699,294.751404 291.376831,296.517548 291.457825,298.979309 
	C291.374451,299.604858 291.317078,299.852478 291.101624,300.447266 
	C285.366638,309.365479 283.836029,319.297241 281.457001,329.322876 
	C281.413849,329.941650 281.388550,330.187256 281.244415,330.780670 
	C277.272644,336.331787 274.611572,342.129883 272.538513,348.589233 
	C272.465546,349.165344 272.437378,349.395996 272.310852,349.960907 
	C272.006470,350.711456 271.800079,351.127563 271.463318,351.866638 
	C269.743378,353.853851 269.704620,356.645782 266.985138,357.839172 
	C264.047150,358.672333 262.634216,360.703461 261.119019,363.124939 
	C260.747498,363.564789 260.575287,363.720551 260.099152,364.046387 
	C254.087326,366.054688 249.296814,369.273071 245.165543,374.077759 
	C244.431854,374.842407 243.758972,375.052399 242.808258,375.474670 
	C242.032806,375.724335 241.572433,375.809387 240.743347,375.909607 
	C240.126740,375.962891 239.873749,375.973846 239.230026,375.991974 
	C229.519287,378.764740 219.938858,378.821869 210.372116,378.451874 
	C199.154419,378.018005 188.832718,374.153137 178.447174,369.194641 
	C178.104538,368.941650 178.044998,368.982300 178.045593,368.946259 
	C176.940384,367.942566 175.879913,366.910492 174.189728,366.227081 
	C173.917572,366.067963 173.981491,365.999786 173.960846,366.041565 
	C169.752808,361.881378 166.338440,356.905212 161.049850,353.354919 
	C160.182419,352.846863 159.771973,352.342255 159.258255,351.509888 
	C158.904694,350.867004 158.687820,350.512115 158.262894,349.928223 
	C157.612213,348.996246 157.536484,348.182495 157.217270,347.135620 
	C157.086151,346.866547 157.049744,346.933838 157.087982,346.933167 
	C155.289001,345.817383 154.896454,343.817932 154.074722,341.690887 
	C153.468140,334.683350 150.597168,328.866974 147.306763,322.832458 
	C147.070526,322.300995 146.988861,322.083099 146.798737,321.533997 
	C146.431488,319.626526 146.590515,317.926422 145.213181,316.314575 
	C144.995621,315.518250 144.883835,315.056824 144.670074,314.248779 
	C143.374008,307.580505 142.578842,301.134888 138.710754,295.280457 
	C138.353378,294.785919 138.232071,294.572845 137.972321,294.018707 
	C137.570694,292.988037 137.428101,292.261688 137.108673,291.204590 
	C136.984360,290.602417 136.941422,290.360046 136.809540,289.759033 
	C135.532089,283.794983 133.851486,278.310638 132.632782,272.710388 
	C132.174210,270.603119 131.186844,268.686737 129.158875,267.011658 
	C128.022156,265.688324 127.560249,264.485260 127.549789,262.734436 
	C128.392273,256.696411 124.795006,252.206497 123.511864,247.105499 
	C121.977463,241.005646 120.467506,234.860718 117.092842,229.001648 
	C116.790298,228.458237 116.692612,228.229507 116.517853,227.638855 
	C116.700233,223.533676 115.204521,220.344543 113.056953,217.012115 
	C112.070213,215.462173 112.088776,213.983566 111.648529,212.260696 
	C111.476418,211.220551 111.426888,210.516495 111.035934,209.528137 
	C110.442497,208.385834 109.791252,207.664352 109.614723,206.339630 
	C108.589592,198.070068 105.530876,190.783783 102.448616,183.170654 
	C101.951538,182.516068 101.743324,182.097733 101.541573,181.307129 
	C101.421844,180.512772 101.325638,180.067581 101.116234,179.303543 
	C100.977623,178.536331 100.886200,178.102219 100.687408,177.354706 
	C100.505287,175.681519 99.848106,174.552490 99.022400,173.125214 
	C98.716133,172.382996 98.595291,171.939285 98.486320,171.128983 
	C98.076019,165.285187 95.633766,160.201477 95.342163,154.672928 
	C95.233131,152.605804 93.448929,151.230042 91.991531,149.405518 
	C91.592491,148.974823 91.442871,148.795776 91.137695,148.307251 
	C90.705048,147.374908 90.529289,146.719131 90.250687,145.750366 
	C90.054001,145.011108 89.963806,144.584015 89.769089,143.849823 
	C89.471024,143.150879 89.281128,142.758240 88.978149,142.054626 
	C88.317230,140.745392 87.934311,139.703461 88.020630,138.191559 
	C87.761230,130.683395 85.968956,124.011246 81.513191,117.819412 
	C81.238678,117.275154 81.165329,117.038727 81.047112,116.431000 
	C80.685478,114.048904 80.433739,112.016655 78.966179,109.963577 
	C78.636414,109.064316 78.542282,108.522552 78.513153,107.532585 
	C77.502106,103.089714 77.809174,98.894775 76.633827,94.891991 
	C75.527740,91.125099 77.288574,88.435799 81.179771,87.671562 
	C82.970741,87.319801 84.848297,87.302383 86.632866,87.567169 
	C95.844086,88.933899 104.992172,88.664604 114.253403,87.683746 
	C120.458321,87.026588 126.829086,87.073021 133.558807,87.920639 
z"/>
<path fill="#1B6A43" opacity="1.000000" stroke="none" 
	d="
M145.632538,314.312683 
	C145.545944,315.019501 145.619415,315.319031 145.903534,315.793915 
	C147.226913,317.322876 147.232422,319.062469 147.714996,321.017029 
	C147.801788,321.365265 147.775131,321.717072 147.880371,321.858643 
	C150.792908,327.908508 153.070465,334.018097 154.921097,340.663330 
	C155.620285,342.771423 156.332809,344.501007 157.085785,346.581543 
	C155.102676,346.859070 154.491699,345.422913 153.731949,343.824036 
	C151.833267,339.828217 150.683655,335.308228 146.463196,332.791504 
	C145.620453,332.288971 145.209549,331.321045 145.353577,330.188690 
	C146.238586,323.231476 144.959167,317.167358 140.504379,311.214569 
	C137.987305,307.851105 137.763947,302.571106 137.096359,298.067108 
	C135.867569,289.776733 134.051544,281.255798 129.483505,274.644470 
	C126.469269,270.281952 127.202522,266.073792 125.635651,262.079498 
	C121.084381,250.477432 121.008217,237.278595 113.107124,226.907150 
	C111.836548,225.239319 112.846474,223.404434 112.492760,221.627518 
	C110.481331,211.522720 107.347755,201.654160 103.356476,192.323196 
	C99.696159,183.765930 98.776093,174.615295 95.357025,166.064697 
	C91.926018,157.484207 90.289169,148.194885 86.984749,139.553207 
	C81.793823,125.978020 79.392464,111.532433 73.582870,98.169617 
	C72.626488,95.969810 72.133278,93.349602 74.670120,91.123367 
	C78.011360,96.243195 77.733696,102.401794 79.648193,108.326370 
	C79.540131,109.039001 79.607117,109.333405 79.901764,109.794250 
	C81.101448,111.651581 81.524971,113.501465 81.771896,115.755814 
	C81.975098,116.053726 81.955666,116.529526 82.063538,116.741791 
	C85.912773,123.223854 87.658607,130.157364 88.924324,137.638107 
	C89.207085,139.136612 89.487625,140.248291 89.927574,141.668198 
	C90.365425,142.306412 90.602127,142.664032 90.692482,143.354691 
	C90.564583,143.985947 90.631615,144.291977 90.917908,144.777664 
	C91.497070,145.454651 91.486061,146.096954 91.764565,146.961212 
	C91.875549,147.246918 91.851761,147.635513 91.946716,147.805450 
	C96.946838,154.801926 97.079147,163.223221 99.670593,171.214172 
	C99.628036,171.940735 99.683090,172.258331 99.960976,172.766846 
	C101.154938,174.065704 101.428833,175.484924 101.688240,177.257202 
	C101.622147,177.948700 101.677429,178.265137 101.953186,178.772888 
	C102.359299,179.303467 102.598579,179.653168 102.699348,180.338837 
	C102.592377,180.971100 102.662346,181.279068 102.943588,181.770294 
	C106.233345,189.555740 108.541321,197.425446 110.866058,205.667145 
	C111.073151,206.868423 111.302635,207.684586 111.727905,208.754974 
	C112.559174,209.465042 112.483398,210.221771 112.705215,211.198761 
	C113.083786,212.817291 113.460838,214.090332 113.976074,215.667236 
	C115.659203,219.446899 116.988945,222.993347 117.697556,227.136047 
	C117.738434,227.514877 117.694977,227.804321 117.802345,227.903748 
	C122.533920,238.768311 125.257065,250.165985 128.960938,261.626465 
	C129.230270,263.130615 129.505463,264.243713 129.940704,265.664978 
	C134.259705,273.302673 135.392731,281.592102 137.719772,289.911163 
	C137.859940,290.275116 137.841034,290.662781 137.946350,290.825806 
	C138.510956,291.471710 138.485825,292.126526 138.751923,293.007080 
	C138.841324,293.304443 138.819153,293.676453 138.922760,293.831299 
	C142.789352,300.118164 143.748779,307.189789 145.632538,314.312683 
z"/>
<path fill="#1B6A43" opacity="1.000000" stroke="none" 
	d="
M254.270264,213.703506 
	C254.023468,214.015961 253.809158,214.315598 253.830093,214.498611 
	C250.767395,227.858032 246.178543,240.585876 242.198486,253.492859 
	C240.449722,259.163940 238.785767,264.881775 236.285126,270.705078 
	C235.817932,271.254974 235.672287,271.532043 235.622986,272.090332 
	C234.177078,280.607849 231.553497,288.539490 228.252106,296.667847 
	C227.856247,297.259369 227.719086,297.539948 227.627380,298.084534 
	C226.568054,303.928680 225.631485,309.573120 222.032867,314.659729 
	C221.383041,314.909668 221.156296,315.075867 220.953857,315.563049 
	C219.047348,318.509491 216.486771,318.287415 213.389954,317.282837 
	C211.360977,316.058838 209.662125,315.108521 208.475525,313.100525 
	C206.165283,310.659332 205.011368,307.994537 204.344223,305.039276 
	C203.144852,299.726471 201.289017,294.579651 200.678802,288.562683 
	C204.133682,290.946350 204.703629,295.121246 205.972107,298.932434 
	C206.717148,301.170959 207.333862,303.463043 208.978134,305.135406 
	C210.390640,306.571991 211.145782,307.871765 210.598572,309.958984 
	C209.955444,312.411957 211.829056,313.633392 213.607910,314.523956 
	C215.613724,315.528107 216.094269,313.391754 217.323502,312.589172 
	C223.183105,308.763489 222.994400,302.324860 225.145004,296.827545 
	C227.688721,290.325378 230.100815,283.809235 231.526123,276.988281 
	C233.349457,268.262543 238.079407,260.361847 238.243958,251.103531 
	C238.312607,247.242203 242.194885,244.467422 243.237976,240.444534 
	C246.181702,229.091629 248.724670,217.472519 253.299850,206.758713 
	C256.672241,198.861572 257.423859,190.286331 261.305939,182.700516 
	C261.903046,181.533707 262.676910,180.457352 263.950836,179.392731 
	C265.086090,180.541000 265.225250,181.774490 264.794495,182.835449 
	C260.743500,192.812622 258.394531,203.359055 254.270264,213.703506 
z"/>
<path fill="#369362" opacity="1.000000" stroke="none" 
	d="
M33.194263,404.844330 
	C31.447969,402.885498 32.075089,400.304626 32.074280,397.867432 
	C32.037754,287.921783 32.047142,177.976105 32.057365,67.573975 
	C33.798584,69.339333 33.019100,71.942154 33.020016,74.360916 
	C33.059967,179.967560 33.080723,285.574249 32.940762,391.180725 
	C32.934830,395.656036 34.717457,400.031677 33.194263,404.844330 
z"/>
<path fill="#32905F" opacity="1.000000" stroke="none" 
	d="
M413.694733,66.408691 
	C413.948547,174.408432 413.948669,282.724915 413.923706,391.507812 
	C413.746887,392.099609 413.595062,392.224976 413.203857,392.177277 
	C412.965393,285.553650 412.963654,179.103134 412.986816,72.652618 
	C412.987244,70.676849 413.283081,68.701141 413.694733,66.408691 
z"/>
<path fill="#1B6A43" opacity="1.000000" stroke="none" 
	d="
M268.339111,168.712936 
	C267.903351,169.299179 267.775818,169.600525 267.724304,170.178329 
	C267.376953,173.456589 266.643555,176.368439 264.676270,179.134125 
	C264.320404,179.264145 264.125671,179.094818 264.028229,179.008865 
	C264.302795,172.765625 265.407562,166.839676 268.270752,161.239334 
	C271.241608,155.428513 270.180481,148.491348 273.083374,142.590973 
	C275.716003,137.239899 276.441528,131.069305 278.572662,125.835556 
	C283.277039,114.282455 286.172607,102.190063 290.749878,90.661530 
	C292.270508,86.831673 295.658081,85.067429 299.506378,85.125214 
	C311.946594,85.312019 324.419037,84.023949 336.829590,85.865044 
	C339.141235,86.207962 341.430267,85.788864 343.746979,85.378448 
	C346.071442,84.966660 348.679321,84.014236 350.840881,86.691711 
	C335.541443,87.102264 320.117798,87.131966 304.694489,87.218231 
	C302.385468,87.231155 300.077911,87.509224 297.395813,87.844162 
	C296.095398,88.866669 295.273529,89.834023 293.845154,90.361389 
	C293.541656,90.281479 293.320282,90.322723 293.301758,90.433777 
	C293.039795,98.146172 288.085358,104.230164 286.323975,111.719238 
	C285.886139,112.274239 285.751312,112.560196 285.679718,113.116379 
	C284.626068,120.658119 282.545197,127.654846 279.220917,134.675644 
	C278.793335,135.238739 278.648224,135.507950 278.560272,136.042984 
	C278.797516,136.697479 278.791870,137.109253 278.260986,137.757065 
	C277.808655,138.234253 277.657471,138.500137 277.563416,139.035568 
	C276.142639,149.464508 272.733887,159.046677 268.339111,168.712936 
z"/>
<path fill="#217048" opacity="1.000000" stroke="none" 
	d="
M341.627808,138.277740 
	C341.989471,137.649109 342.119446,137.340820 342.261169,136.780670 
	C342.200012,136.136200 342.284210,135.780792 342.680542,135.220261 
	C342.835663,134.977921 343.045227,134.556458 343.040894,134.321136 
	C343.420074,133.625000 343.492584,133.059631 343.686462,132.235947 
	C343.855469,131.817139 343.908936,131.658600 343.978943,131.249664 
	C344.925232,130.194305 344.124695,128.845413 345.533508,128.035889 
	C346.163696,130.598892 345.457520,132.970779 344.747040,135.376282 
	C342.523560,142.904587 344.759705,151.905106 337.321960,157.703964 
	C333.618866,171.118469 329.609772,184.436554 324.679688,197.459824 
	C323.365082,200.932526 322.479370,204.438858 323.234985,208.175293 
	C323.435059,209.164627 323.774139,210.306366 322.721283,210.887741 
	C317.242615,213.912933 318.247894,219.208954 317.984985,224.511002 
	C315.848694,232.143860 314.203888,239.477386 311.864471,246.611191 
	C311.061401,249.060028 310.980377,251.861160 308.346985,253.819275 
	C303.873474,256.661774 305.174957,261.677673 303.065155,265.627533 
	C302.653595,266.805267 302.052612,267.224182 300.887482,266.938477 
	C304.769897,249.309814 310.666260,232.500778 316.706085,215.328491 
	C317.140015,214.505737 317.396606,214.035614 317.673584,213.297150 
	C316.623383,210.245087 318.421570,207.996780 319.296387,205.201080 
	C322.172760,198.452377 324.296509,191.823746 325.699738,185.061966 
	C326.587952,180.781982 328.250732,176.841599 329.721313,172.847000 
	C332.018250,166.607559 334.329620,160.451447 335.550049,153.856949 
	C336.544098,148.485718 338.834656,143.451950 341.627808,138.277740 
z"/>
<path fill="#2C8F5B" opacity="1.000000" stroke="none" 
	d="
M73.105545,22.995098 
	C74.352524,21.647598 76.412003,22.005861 78.381554,22.005653 
	C175.160721,21.995441 271.939880,22.004610 368.719055,21.980356 
	C371.902649,21.979559 375.026459,22.229555 378.529297,23.007343 
	C375.223633,25.289864 371.517822,22.860828 367.792114,22.887825 
	C336.827667,23.112207 305.860870,23.007921 274.894775,23.007269 
	C207.801590,23.005854 140.708420,23.007002 73.105545,22.995098 
z"/>
<path fill="#D7F4E7" opacity="1.000000" stroke="none" 
	d="
M190.385422,256.641724 
	C185.234558,252.385300 184.928818,245.812729 183.232788,239.996353 
	C178.968246,225.371384 174.467941,210.837463 169.307449,196.506470 
	C166.900558,189.822418 166.136963,182.697205 163.013168,176.143082 
	C159.019272,167.763290 157.519379,158.557785 156.207092,148.979950 
	C157.922394,148.871933 158.117172,150.313812 158.481735,151.532974 
	C161.212463,160.665253 164.751129,169.554062 166.776825,179.305115 
	C166.808594,179.701996 166.666550,179.793518 166.704407,179.869049 
	C170.980469,186.495682 171.502930,194.224380 173.698669,201.836395 
	C173.834595,202.206924 173.833664,202.125214 173.793579,202.133148 
	C175.640884,203.608597 175.560318,205.906616 176.301468,207.892273 
	C181.168869,220.932724 183.640121,234.733688 189.054413,247.614182 
	C190.155563,250.233765 190.695038,253.309296 190.385422,256.641724 
z"/>
<path fill="#1B6A43" opacity="1.000000" stroke="none" 
	d="
M166.856812,179.231857 
	C162.498672,169.819138 160.562790,159.159103 156.536011,148.825867 
	C156.281326,148.551529 156.303452,148.229218 156.185852,148.118469 
	C155.439102,147.519806 155.516052,146.738892 155.296234,145.735046 
	C155.365295,145.049881 155.312851,144.736938 155.034637,144.236160 
	C152.383438,139.540253 149.980057,134.949905 149.204086,129.812378 
	C147.286880,117.119019 141.113663,105.674240 138.633102,93.157356 
	C138.535461,92.664635 138.443039,92.188484 138.706055,91.348846 
	C143.338699,92.992653 142.983994,97.696289 144.001190,101.179550 
	C147.100266,111.791901 151.532593,122.002174 153.589767,132.939041 
	C154.047272,135.371384 154.337448,138.351364 157.584747,139.302505 
	C158.688583,139.625839 159.009933,140.720352 158.875137,141.745911 
	C157.644379,151.111023 161.996399,159.184891 164.839111,167.597244 
	C166.068634,171.235733 166.980728,174.898300 166.856812,179.231857 
z"/>
<path fill="#126F3F" opacity="1.000000" stroke="none" 
	d="
M265.889526,357.222870 
	C267.445709,355.403992 268.742157,353.742767 270.130493,351.776581 
	C270.214966,351.053650 270.343811,350.686340 270.895935,350.230804 
	C271.162231,350.084167 271.074371,350.072021 271.100281,350.108032 
	C273.393646,343.729462 276.820648,337.830139 279.605316,331.253967 
	C279.822357,330.958954 279.958771,330.519135 279.991577,330.291229 
	C281.145966,328.467010 280.384766,326.174713 282.330261,324.632324 
	C282.916626,324.532776 283.159119,324.556702 283.697876,324.794617 
	C282.991760,328.677979 283.047852,332.003174 285.818634,335.155945 
	C288.768005,338.511902 286.668396,341.807892 284.296722,344.215271 
	C282.021057,346.525208 279.134644,348.478882 276.163910,349.789673 
	C273.178619,351.106934 271.359589,353.214478 271.201141,356.032593 
	C270.999054,359.625549 269.327850,359.723297 266.139038,358.798889 
	C265.452026,358.158783 265.478027,357.766510 265.889526,357.222870 
z"/>
<path fill="#1B6A43" opacity="1.000000" stroke="none" 
	d="
M190.253983,257.029816 
	C184.977600,239.899414 179.813721,222.834549 174.651169,205.769302 
	C174.364166,204.820618 174.088074,203.868637 173.780212,202.529633 
	C178.696808,204.066299 177.195129,209.151093 178.856293,212.677750 
	C184.013351,223.626007 184.399429,236.133331 190.090897,246.992264 
	C192.029922,250.691818 191.332016,255.451126 193.523026,259.333984 
	C194.484268,261.037476 194.742264,263.095520 196.671967,264.242279 
	C197.269928,264.597626 197.978470,265.706543 197.827133,266.241486 
	C195.714401,273.709290 200.712494,280.044342 201.062531,287.503143 
	C201.085342,287.907990 200.890198,288.075012 200.791946,288.157715 
	C198.046173,286.302216 196.558884,283.391754 196.127716,280.445984 
	C195.004257,272.770599 191.774780,265.696472 190.321793,257.750397 
	C190.335129,257.354156 190.366760,257.095276 190.253983,257.029816 
z"/>
<path fill="#D7F4E7" opacity="1.000000" stroke="none" 
	d="
M79.671997,108.252495 
	C77.374924,103.277382 75.085945,97.857582 75.016212,91.415558 
	C75.348289,90.623001 75.672165,90.255211 76.044609,89.641945 
	C76.221863,88.921127 76.482048,88.534210 77.221161,88.140503 
	C77.990005,87.927063 78.411392,87.808815 78.959549,87.507668 
	C83.195511,84.700081 87.791275,85.921043 92.075623,86.123489 
	C103.301132,86.653915 114.497749,85.756500 125.706436,85.990944 
	C127.857979,86.035942 130.012466,85.952133 132.563171,86.756691 
	C133.222809,87.204239 133.467041,87.398811 133.880066,87.742630 
	C133.090546,88.777466 131.956512,88.904724 130.774460,88.937241 
	C118.706261,89.269196 106.639908,89.722847 94.569534,89.890602 
	C90.462151,89.947693 86.347649,89.080902 82.231270,89.026840 
	C78.659401,88.979942 76.654449,90.197845 78.088806,94.601494 
	C79.455200,98.796509 79.763229,103.315376 79.671997,108.252495 
z"/>
<path fill="#0A763E" opacity="1.000000" stroke="none" 
	d="
M308.007629,254.304703 
	C310.052734,244.037811 312.473694,234.214249 317.654358,225.064209 
	C317.252167,231.377991 320.222870,237.732086 318.097321,244.247406 
	C316.500763,249.141129 311.766937,251.637878 309.674225,256.154510 
	C309.214447,257.146851 308.231750,255.613174 308.007629,254.304703 
z"/>
<path fill="#D8F5E8" opacity="1.000000" stroke="none" 
	d="
M316.592163,215.176239 
	C313.015625,230.415344 307.209808,245.257996 302.845764,260.544922 
	C302.299988,262.456726 301.673431,264.345459 301.095917,266.623413 
	C301.266571,267.203217 301.425598,267.404510 301.671173,267.980682 
	C301.914368,270.828491 299.602631,272.305481 298.878632,274.643738 
	C298.507904,274.714813 298.572144,274.768829 298.588928,274.730377 
	C298.463104,275.731232 298.671753,276.823303 297.773346,277.962158 
	C297.408295,278.120392 297.434875,278.254181 297.502563,278.245758 
	C298.069000,281.112122 295.617584,283.400665 295.946655,286.632507 
	C295.585602,289.114563 295.158295,291.160370 292.709229,292.418304 
	C292.054810,285.424866 293.046173,278.415131 296.384308,272.270477 
	C301.304291,263.213959 302.870300,253.181763 306.083984,243.638016 
	C309.279480,234.148193 312.015015,224.477264 316.592163,215.176239 
z"/>
<path fill="#D3F2E3" opacity="1.000000" stroke="none" 
	d="
M178.276184,369.230042 
	C184.657333,372.159119 192.240768,372.204468 198.726273,375.680420 
	C200.955933,376.875458 203.467361,377.100708 206.012177,377.082428 
	C213.342972,377.029755 220.682465,376.864655 228.002563,377.151581 
	C232.308517,377.320343 235.913635,374.429749 240.614182,374.987122 
	C241.360016,376.705383 239.864914,376.326691 238.701981,376.804260 
	C234.535507,377.617401 230.752625,378.384064 226.578674,379.284302 
	C222.591736,383.787659 217.856552,381.938538 213.561737,381.409027 
	C211.897278,381.203796 210.148178,380.542480 208.052368,379.945557 
	C197.424606,377.791077 187.414764,375.174316 178.276184,369.230042 
z"/>
<path fill="#156E3F" opacity="1.000000" stroke="none" 
	d="
M292.332275,292.653625 
	C292.978882,290.805359 293.636017,289.115051 294.500793,287.155212 
	C295.183258,286.570282 295.702759,286.453003 296.619263,286.745361 
	C297.398712,288.730530 297.534332,290.114960 296.064819,291.886627 
	C293.458435,295.028870 292.681335,298.968079 294.025543,303.044281 
	C295.703705,308.133301 293.913940,314.412109 289.228241,316.682709 
	C287.055054,317.735779 286.383209,319.784119 284.226929,320.928070 
	C283.459625,316.905701 284.771484,313.014069 286.023529,309.265350 
	C286.991516,306.367126 288.290741,303.520569 289.594666,300.291016 
	C289.819763,299.960510 289.971466,299.517151 289.996887,299.284241 
	C291.018158,297.344299 290.743378,295.277374 291.842499,293.269775 
	C292.098022,293.012390 292.342743,292.811554 292.332275,292.653625 
z"/>
<path fill="#D7F4E7" opacity="1.000000" stroke="none" 
	d="
M138.695999,90.907532 
	C144.264847,108.428917 149.611130,125.849678 154.932190,143.651154 
	C150.177216,139.164230 147.537064,133.351807 147.065475,126.577240 
	C146.589188,119.735031 144.199951,113.593285 141.336960,107.366089 
	C138.981689,102.243217 138.443481,96.284927 137.112793,90.288933 
	C137.286102,89.773293 137.446533,89.665611 137.817947,89.756668 
	C138.069870,90.295219 138.218048,90.579056 138.695999,90.907532 
z"/>
<path fill="#1B6A43" opacity="1.000000" stroke="none" 
	d="
M132.735291,86.699692 
	C115.346642,87.059959 97.679543,87.154404 79.549377,87.286812 
	C79.638634,84.443901 81.955818,85.208588 83.830757,85.001167 
	C90.590157,84.253395 97.279488,85.892914 104.074036,85.397980 
	C111.453041,84.860489 118.889061,85.106400 126.300186,85.008568 
	C128.469894,84.979935 130.633102,84.971634 132.735291,86.699692 
z"/>
<path fill="#0D6D3C" opacity="1.000000" stroke="none" 
	d="
M207.952637,379.812958 
	C213.606461,379.885040 219.489120,380.201508 225.773376,379.394470 
	C227.537460,380.558075 228.887314,381.698242 231.013931,383.494476 
	C220.726852,383.494476 211.399445,383.494476 202.072021,383.494476 
	C204.663162,381.218109 207.736664,382.611267 210.674255,381.632629 
	C209.763489,381.058533 208.972488,380.559906 207.952637,379.812958 
z"/>
<path fill="#126F3F" opacity="1.000000" stroke="none" 
	d="
M238.770172,376.879395 
	C239.081161,376.414398 239.843964,375.977997 240.823242,375.286011 
	C241.039749,375.030365 241.026901,374.999329 241.019760,375.013062 
	C241.157394,374.898254 241.302170,374.769714 241.733246,374.689697 
	C242.520493,374.554596 243.021423,374.370941 243.739716,374.023254 
	C248.601288,369.529999 254.194000,366.618073 259.931091,363.351440 
	C260.279205,363.301208 260.003662,363.006104 260.144104,363.151062 
	C260.757172,362.161224 261.555634,361.333344 263.328979,360.875854 
	C264.120148,365.964264 258.877502,366.997162 256.701416,370.406769 
	C255.748978,371.899048 253.326370,372.862000 252.379318,375.147339 
	C251.703308,376.778625 249.656509,377.331604 248.055237,376.834778 
	C245.038452,375.898743 242.158676,376.962036 238.770172,376.879395 
z"/>
<path fill="#1B6A43" opacity="1.000000" stroke="none" 
	d="
M352.306274,106.374924 
	C352.328796,105.962410 352.465576,105.802750 352.651398,105.331543 
	C352.667633,104.833221 352.634857,104.646454 352.752991,104.218582 
	C353.036896,103.667160 353.169891,103.356857 353.316071,102.792664 
	C353.207184,101.901810 353.346466,101.340538 354.084534,100.737854 
	C355.766937,104.369675 354.174744,107.840744 353.000214,111.213936 
	C351.521423,115.460922 350.189026,119.689552 349.984436,124.201408 
	C349.890381,126.276108 349.146240,127.728600 346.506104,128.023270 
	C346.129822,128.068146 345.940002,127.923439 345.837219,127.862808 
	C344.377869,125.831566 346.089020,124.346222 346.744080,122.320084 
	C347.124603,121.654228 347.308533,121.331017 347.523834,120.729347 
	C347.430084,120.309395 347.304901,120.167900 347.100952,119.751839 
	C346.967926,119.293068 346.913666,119.108849 346.867920,118.633759 
	C346.925262,118.153084 346.974060,117.963280 347.117371,117.492821 
	C347.343719,116.831787 347.430023,116.440994 347.512482,115.734695 
	C347.634460,115.016426 347.800110,114.637749 348.233246,114.042526 
	C348.760590,113.519417 349.050781,113.208748 349.429199,112.567894 
	C350.210327,110.667976 350.468903,108.902870 351.737488,107.217911 
	C351.951935,106.971268 352.004791,106.958206 351.980774,106.945351 
	C352.111389,106.830925 352.265991,106.729347 352.306274,106.374924 
z"/>
<path fill="#D8F5E8" opacity="1.000000" stroke="none" 
	d="
M289.502930,300.089417 
	C287.845245,306.719574 285.870697,313.478668 283.890533,320.632385 
	C283.884918,321.027039 283.690338,321.162872 283.745392,321.268005 
	C283.509796,322.404938 283.995605,323.551392 282.964325,324.693542 
	C281.936005,326.491638 281.277832,328.124695 280.322021,329.910522 
	C279.591095,326.632263 280.987579,323.619751 281.993774,320.455841 
	C284.166168,313.624756 284.933990,306.310486 289.502930,300.089417 
z"/>
<path fill="#D3F2E3" opacity="1.000000" stroke="none" 
	d="
M160.708649,352.328735 
	C166.647568,355.106964 170.810654,359.707855 173.901398,365.734039 
	C173.325714,365.748047 172.711243,365.412720 171.836365,365.003906 
	C171.101181,364.861755 170.693665,364.655304 170.213043,364.003601 
	C170.081635,363.677826 170.143433,363.831604 170.217102,363.793640 
	C167.754028,363.297852 166.029907,361.928284 165.339172,359.016754 
	C165.311081,358.665833 165.165848,358.882782 165.256927,358.789276 
	C162.728485,357.478912 160.832977,355.682281 160.708649,352.328735 
z"/>
<path fill="#1B6A43" opacity="1.000000" stroke="none" 
	d="
M173.879303,201.775146 
	C171.490082,195.053711 169.145569,187.900497 166.771652,180.345932 
	C169.646179,180.477386 169.920288,183.038742 170.499481,185.149719 
	C171.960114,190.473206 173.469971,195.801117 173.879303,201.775146 
z"/>
<path fill="#D9F5E8" opacity="1.000000" stroke="none" 
	d="
M354.357605,100.587624 
	C354.154907,101.123154 353.952301,101.644241 353.539490,102.352051 
	C352.201752,100.626930 351.535370,98.458908 352.274567,96.416466 
	C353.345337,93.457901 352.449432,91.003853 351.145325,88.109589 
	C351.532135,87.567787 351.964752,87.509956 352.705048,87.708008 
	C352.999146,87.862129 353.143219,88.101425 353.279755,88.071976 
	C353.917450,88.139687 354.343567,88.370354 354.796448,89.111511 
	C355.065857,89.917747 355.221985,90.367287 355.583130,90.944122 
	C358.661682,94.373856 355.561310,97.365166 354.840393,100.531235 
	C354.383850,100.558281 354.357727,100.573181 354.357605,100.587624 
z"/>
<path fill="#288857" opacity="1.000000" stroke="none" 
	d="
M412.736938,392.345032 
	C412.964539,392.004181 413.432434,391.993225 413.665558,391.983704 
	C414.256775,399.396118 413.947083,406.715332 410.299133,413.794250 
	C411.781616,407.020203 412.018982,399.838287 412.736938,392.345032 
z"/>
<path fill="#1B6A43" opacity="1.000000" stroke="none" 
	d="
M160.704742,351.876587 
	C161.633881,354.504486 163.693192,356.064423 165.215881,358.389648 
	C161.278931,358.256622 158.143555,354.087250 157.065735,347.260742 
	C157.568100,347.454712 158.050049,348.042908 158.758057,348.815369 
	C159.247437,349.249908 159.489838,349.518890 159.771637,350.073975 
	C160.052948,350.803345 160.270782,351.268158 160.704742,351.876587 
z"/>
<path fill="#156E3F" opacity="1.000000" stroke="none" 
	d="
M300.727692,268.180908 
	C300.906555,267.760620 300.885864,267.349121 300.996704,267.175537 
	C301.577087,266.745331 302.046661,266.488739 302.757507,266.116699 
	C303.672638,268.516022 305.659454,271.272461 301.346619,272.971863 
	C299.823883,271.633667 300.678406,270.070221 300.727692,268.180908 
z"/>
<path fill="#1B6A43" opacity="1.000000" stroke="none" 
	d="
M354.742554,100.478027 
	C354.964325,97.688072 356.368317,94.952835 355.795898,91.483185 
	C360.555542,94.548195 357.199249,97.426643 354.742554,100.478027 
z"/>
<path fill="#1B6A43" opacity="1.000000" stroke="none" 
	d="
M165.235596,359.098877 
	C166.874405,360.167145 168.437744,361.668427 170.145920,363.462708 
	C166.937317,364.343781 164.450546,363.879181 165.235596,359.098877 
z"/>
<path fill="#217048" opacity="1.000000" stroke="none" 
	d="
M296.984406,286.532257 
	C296.468597,286.946198 295.965637,286.935577 295.085571,286.905273 
	C295.497589,284.196198 296.286713,281.506744 297.323059,278.527344 
	C298.580811,280.948273 296.994507,283.470123 296.984406,286.532257 
z"/>
<path fill="#217048" opacity="1.000000" stroke="none" 
	d="
M300.650726,268.029480 
	C300.931976,269.217346 300.957397,270.674103 300.976990,272.567993 
	C300.349518,273.526947 299.727875,274.048767 298.807068,274.642700 
	C299.136902,272.575989 299.765900,270.437195 300.650726,268.029480 
z"/>
<path fill="#D3F2E3" opacity="1.000000" stroke="none" 
	d="
M174.062668,366.356445 
	C175.726974,365.901367 177.149643,366.447479 177.973892,368.569946 
	C176.766724,368.155090 175.487244,367.399994 174.062668,366.356445 
z"/>
<path fill="#288857" opacity="1.000000" stroke="none" 
	d="
M60.340851,25.997074 
	C61.399937,24.455566 63.256062,24.017973 65.633827,23.963451 
	C64.615013,25.600666 62.757847,26.038275 60.340851,25.997074 
z"/>
<path fill="#156E3F" opacity="1.000000" stroke="none" 
	d="
M282.943970,324.897919 
	C282.832367,323.887604 283.070526,322.916626 283.554565,321.659393 
	C284.094849,322.395935 284.892456,323.325897 284.185669,324.753357 
	C283.760681,324.984802 283.527222,324.961029 282.943970,324.897919 
z"/>
<path fill="#1B6A43" opacity="1.000000" stroke="none" 
	d="
M138.010223,89.645752 
	C138.028915,89.955406 137.579178,89.895050 137.352417,89.888008 
	C137.125656,89.880966 137.090210,89.928986 137.117752,89.918121 
	C136.849258,89.755898 136.583588,89.562775 136.175659,89.151077 
	C136.003036,88.974266 135.887634,88.622231 135.877350,88.437218 
	C137.500504,86.799881 137.755783,88.048828 138.010223,89.645752 
z"/>
<path fill="#2C8F5B" opacity="1.000000" stroke="none" 
	d="
M67.689331,23.281307 
	C69.148758,23.000757 70.289520,22.958403 71.870834,22.928108 
	C71.276215,23.806561 70.043541,24.004498 68.372986,24.001457 
	C67.788261,23.846630 67.579460,23.683067 67.689331,23.281307 
z"/>
<path fill="#2C8F5B" opacity="1.000000" stroke="none" 
	d="
M42.247108,40.843987 
	C41.977299,39.835175 42.536057,38.965946 43.718346,38.121292 
	C43.943748,39.102528 43.487431,40.029663 42.247108,40.843987 
z"/>
<path fill="#288857" opacity="1.000000" stroke="none" 
	d="
M409.792114,414.234497 
	C409.842072,414.851837 409.655212,415.703735 409.238586,416.796234 
	C409.190948,416.180939 409.373108,415.324982 409.792114,414.234497 
z"/>
<path fill="#217048" opacity="1.000000" stroke="none" 
	d="
M297.731445,277.888672 
	C297.655273,277.170532 297.902252,276.220642 298.377472,274.981354 
	C298.888336,275.766937 298.908447,276.793152 297.731445,277.888672 
z"/>
<path fill="#2C8F5B" opacity="1.000000" stroke="none" 
	d="
M383.956970,25.162310 
	C384.549927,25.155266 385.090210,25.365683 385.832947,25.787512 
	C385.294617,25.897301 384.394379,26.344378 383.956970,25.162310 
z"/>
<path fill="#2C8F5B" opacity="1.000000" stroke="none" 
	d="
M40.193382,43.806786 
	C40.155907,43.447876 40.339668,42.893398 40.757236,42.153431 
	C40.798904,42.515697 40.606762,43.063461 40.193382,43.806786 
z"/>
<path fill="#2C8F5B" opacity="1.000000" stroke="none" 
	d="
M388.169800,27.201975 
	C388.529480,27.170593 389.077972,27.372450 389.831604,27.788954 
	C389.477386,27.814138 388.917999,27.624676 388.169800,27.201975 
z"/>
<path fill="#288857" opacity="1.000000" stroke="none" 
	d="
M53.265541,29.954185 
	C53.449627,29.665573 53.927505,29.345068 54.700233,28.998882 
	C54.516499,29.289566 54.037914,29.605930 53.265541,29.954185 
z"/>
<path fill="#288857" opacity="1.000000" stroke="none" 
	d="
M59.816628,438.813354 
	C59.459724,438.844360 58.905487,438.652618 58.158451,438.234802 
	C58.516869,438.202728 59.068081,438.396698 59.816628,438.813354 
z"/>
<path fill="#288857" opacity="1.000000" stroke="none" 
	d="
M407.802795,418.199524 
	C407.848358,418.563263 407.670837,419.118439 407.253906,419.851501 
	C407.202911,419.483215 407.391266,418.937073 407.802795,418.199524 
z"/>
<path fill="#288857" opacity="1.000000" stroke="none" 
	d="
M406.807343,420.192017 
	C406.846130,420.552429 406.660431,421.106201 406.242859,421.846436 
	C406.201630,421.483734 406.392242,420.934540 406.807343,420.192017 
z"/>
<path fill="#288857" opacity="1.000000" stroke="none" 
	d="
M404.805115,423.194916 
	C404.841553,423.552856 404.653900,424.104095 404.237061,424.845428 
	C404.198883,424.486420 404.389954,423.937286 404.805115,423.194916 
z"/>
<path fill="#288857" opacity="1.000000" stroke="none" 
	d="
M55.816032,436.806213 
	C55.842178,437.047363 55.672066,437.059143 55.248363,437.105774 
	C54.732895,436.909332 54.471024,436.678040 54.070065,436.223267 
	C54.493912,436.192169 55.056843,436.384521 55.816032,436.806213 
z"/>
<path fill="#2C8F5B" opacity="1.000000" stroke="none" 
	d="
M50.154285,31.969738 
	C50.360641,31.682316 50.880703,31.362091 51.707321,31.003309 
	C51.498581,31.288815 50.983288,31.612877 50.154285,31.969738 
z"/>
<path fill="#288857" opacity="1.000000" stroke="none" 
	d="
M57.812416,437.810638 
	C57.461075,437.834747 56.913837,437.635895 56.165058,437.220825 
	C56.514519,437.198975 57.065517,437.393341 57.812416,437.810638 
z"/>
<path fill="#2C8F5B" opacity="1.000000" stroke="none" 
	d="
M38.193115,46.818539 
	C38.156158,46.455807 38.347027,45.899609 38.766800,45.151421 
	C38.804115,45.514641 38.612530,46.069859 38.193115,46.818539 
z"/>
<path fill="#1B6A43" opacity="1.000000" stroke="none" 
	d="
M352.780426,87.677864 
	C352.581573,87.799866 352.164032,87.737602 351.429810,87.701324 
	C351.113129,87.727310 351.020081,87.388161 350.975891,87.218079 
	C351.475006,87.196526 352.018372,87.345062 352.780426,87.677864 
z"/>
<path fill="#288857" opacity="1.000000" stroke="none" 
	d="
M56.261894,27.958529 
	C56.448429,27.674845 56.932484,27.358391 57.710999,27.003475 
	C57.523445,27.285261 57.041428,27.605509 56.261894,27.958529 
z"/>
<path fill="#2C8F5B" opacity="1.000000" stroke="none" 
	d="
M37.053783,48.845467 
	C37.032284,48.462036 37.271210,47.900433 37.752014,47.150814 
	C37.767330,47.530968 37.540768,48.099129 37.053783,48.845467 
z"/>
<path fill="#2C8F5B" opacity="1.000000" stroke="none" 
	d="
M386.171692,26.200756 
	C386.530579,26.170254 387.079254,26.371244 387.832001,26.787449 
	C387.477875,26.812525 386.919647,26.622387 386.171692,26.200756 
z"/>
<path fill="#288857" opacity="1.000000" stroke="none" 
	d="
M67.715500,23.064289 
	C68.007996,23.043114 67.999702,23.526510 67.998383,23.768353 
	C67.545395,24.010738 67.093727,24.011282 66.303299,23.999104 
	C66.450691,23.686075 66.936844,23.385771 67.715500,23.064289 
z"/>
<path fill="#288857" opacity="1.000000" stroke="none" 
	d="
M58.264450,26.955559 
	C58.451332,26.672199 58.935768,26.355944 59.715202,26.000938 
	C59.527466,26.282345 59.044731,26.602503 58.264450,26.955559 
z"/>
<path fill="#2C8F5B" opacity="1.000000" stroke="none" 
	d="
M46.183289,35.879593 
	C46.163837,35.737484 46.359951,35.469360 46.780006,35.085476 
	C46.869957,35.283268 46.668259,35.544559 46.183289,35.879593 
z"/>
<path fill="#2C8F5B" opacity="1.000000" stroke="none" 
	d="
M48.199455,33.851974 
	C48.175308,33.708336 48.382507,33.409084 48.801064,32.929211 
	C48.818550,33.064514 48.624676,33.380436 48.199455,33.851974 
z"/>
<path fill="#2C8F5B" opacity="1.000000" stroke="none" 
	d="
M47.185349,34.877968 
	C47.166420,34.736732 47.363194,34.469536 47.783047,34.084816 
	C47.871544,34.280617 47.669853,34.542187 47.185349,34.877968 
z"/>
<path fill="#288857" opacity="1.000000" stroke="none" 
	d="
M52.182800,30.870510 
	C52.164837,30.732004 52.358391,30.465855 52.775040,30.085901 
	C52.865307,30.282642 52.664032,30.539564 52.182800,30.870510 
z"/>
<path fill="#2C8F5B" opacity="1.000000" stroke="none" 
	d="
M390.142944,28.204208 
	C390.292389,28.174643 390.601624,28.382637 391.103241,28.800901 
	C390.964661,28.821373 390.633728,28.631571 390.142944,28.204208 
z"/>
<path fill="#288857" opacity="1.000000" stroke="none" 
	d="
M55.190758,28.866402 
	C55.172512,28.727995 55.366810,28.463425 55.782997,28.082222 
	C55.870575,28.275236 55.670048,28.533453 55.190758,28.866402 
z"/>
<path fill="#288857" opacity="1.000000" stroke="none" 
	d="
M405.821136,422.127045 
	C405.909149,422.317139 405.715973,422.585022 405.227783,422.912842 
	C405.148956,422.722778 405.351379,422.466797 405.821136,422.127045 
z"/>
<path fill="#126F3F" opacity="1.000000" stroke="none" 
	d="
M264.462463,360.054504 
	C264.857849,360.258636 264.657288,360.504028 264.208618,360.839020 
	C264.007538,360.967010 263.843170,360.835449 263.764435,360.765594 
	C263.761627,360.508575 263.837555,360.321381 264.462463,360.054504 
z"/>
<path fill="#2C8F5B" opacity="1.000000" stroke="none" 
	d="
M39.177155,44.883942 
	C39.152561,44.733818 39.343281,44.457230 39.766441,44.077553 
	C39.863045,44.286816 39.660904,44.547817 39.177155,44.883942 
z"/>
<path fill="#1B6A43" opacity="1.000000" stroke="none" 
	d="
M170.274384,363.947937 
	C170.467270,363.898193 170.852905,364.118561 171.407227,364.634644 
	C171.206345,364.692963 170.836746,364.455505 170.274384,363.947937 
z"/>
<path fill="#2C8F5B" opacity="1.000000" stroke="none" 
	d="
M41.184536,41.879330 
	C41.157124,41.726749 41.345856,41.449818 41.768677,41.071159 
	C41.867153,41.281166 41.666458,41.543015 41.184536,41.879330 
z"/>
<path fill="#288857" opacity="1.000000" stroke="none" 
	d="
M408.823547,417.118896 
	C408.845947,417.264740 408.655914,417.536774 408.238007,417.914185 
	C408.147278,417.712341 408.347595,417.454163 408.823547,417.118896 
z"/>
<path fill="#2C8F5B" opacity="1.000000" stroke="none" 
	d="
M45.184738,36.879078 
	C45.165707,36.737453 45.362751,36.470234 45.782707,36.085434 
	C45.870998,36.281300 45.669395,36.543179 45.184738,36.879078 
z"/>
<path fill="#288857" opacity="1.000000" stroke="none" 
	d="
M403.821167,425.119995 
	C403.913177,425.313873 403.720337,425.580933 403.232483,425.907288 
	C403.141388,425.708344 403.341034,425.450531 403.821167,425.119995 
z"/>
<path fill="#288857" opacity="1.000000" stroke="none" 
	d="
M402.800323,426.145081 
	C402.823181,426.287872 402.627747,426.566681 402.210297,426.980957 
	C402.186218,426.838013 402.384125,426.559570 402.800323,426.145081 
z"/>
<path fill="#1B6A43" opacity="1.000000" stroke="none" 
	d="
M77.268410,88.207413 
	C77.281372,88.393326 76.994133,88.741341 76.400040,89.242912 
	C76.384865,89.054153 76.676537,88.711830 77.268410,88.207413 
z"/>
<path fill="#1B6A43" opacity="1.000000" stroke="none" 
	d="
M354.725281,89.169556 
	C354.528198,89.199188 354.146667,88.930183 353.590698,88.351852 
	C353.791138,88.318649 354.165985,88.594780 354.725281,89.169556 
z"/>
<path fill="#126F3F" opacity="1.000000" stroke="none" 
	d="
M265.863159,358.905518 
	C265.832306,359.295105 265.641663,359.532623 265.205292,359.851685 
	C265.011414,359.974854 264.808807,359.801453 264.710632,359.711212 
	C264.720032,359.407379 264.827576,359.193756 265.233459,358.781006 
	C265.531830,358.581848 265.755249,358.795074 265.863159,358.905518 
z"/>
<path fill="#2C8F5B" opacity="1.000000" stroke="none" 
	d="
M44.178749,37.884148 
	C44.160873,37.743099 44.360092,37.475380 44.782013,37.088253 
	C44.801758,37.231720 44.598797,37.494598 44.178749,37.884148 
z"/>
<path fill="#D6F4E6" opacity="1.000000" stroke="none" 
	d="
M341.544434,138.068268 
	C334.997620,159.391998 328.134766,180.826309 321.277832,202.262482 
	C321.026581,203.047867 320.833466,203.851852 320.337646,204.897522 
	C319.906311,204.945831 319.750610,204.743805 319.750671,204.192352 
	C323.376740,192.413269 324.601196,180.354218 330.135681,169.476517 
	C332.426422,164.974213 333.840607,160.025299 334.196655,154.751358 
	C334.614777,148.557739 337.338928,143.049911 341.544434,138.068268 
z"/>
<path fill="#D7F4E7" opacity="1.000000" stroke="none" 
	d="
M190.248230,257.809265 
	C193.638840,267.459106 196.942535,277.564026 200.469971,287.954712 
	C202.549896,296.402710 205.589081,304.194977 208.196198,312.516907 
	C203.115143,310.876099 202.860306,306.041321 202.199799,301.750671 
	C201.255402,295.615692 200.045776,289.724884 196.214279,284.602509 
	C194.621170,282.472656 193.629456,279.942566 194.039734,277.122711 
	C194.602280,273.256317 192.312790,270.097351 191.457108,266.583344 
	C190.792648,263.854767 189.735489,261.169373 190.248230,257.809265 
z"/>
<path fill="#D7F4E7" opacity="1.000000" stroke="none" 
	d="
M236.378189,270.908630 
	C241.803513,252.419952 247.559540,233.817902 253.583313,214.948730 
	C254.658417,221.268494 251.234924,226.935349 249.579727,232.924347 
	C246.323257,244.707321 242.232651,256.260132 238.460327,267.899475 
	C238.110336,268.979370 237.882996,270.189056 236.378189,270.908630 
z"/>
<path fill="#D9F5E8" opacity="1.000000" stroke="none" 
	d="
M264.284058,179.648926 
	C265.288391,176.504059 266.256348,173.743988 267.477509,170.704590 
	C268.706665,175.522934 266.560455,180.349228 265.131134,184.789246 
	C262.310486,193.551453 258.908356,202.137772 256.689026,211.112518 
	C256.407257,212.252029 255.860977,213.272552 254.364044,213.910202 
	C257.431549,202.688538 260.839630,191.361130 264.284058,179.648926 
z"/>
<path fill="#D9F5E8" opacity="1.000000" stroke="none" 
	d="
M268.421417,168.906204 
	C271.094452,159.313156 274.088318,149.598984 277.317505,139.575699 
	C277.231537,146.466019 276.727417,153.621918 273.210449,160.163971 
	C271.678040,163.014542 270.229126,165.910019 268.421417,168.906204 
z"/>
<path fill="#D3F2E3" opacity="1.000000" stroke="none" 
	d="
M129.174896,261.754456 
	C124.334686,251.248459 121.575325,239.858246 117.886795,228.394485 
	C121.325706,231.508850 122.216263,236.180557 123.248901,240.618317 
	C124.898827,247.708954 128.964935,254.066132 129.174896,261.754456 
z"/>
<path fill="#D9F5E8" opacity="1.000000" stroke="none" 
	d="
M286.416077,111.897614 
	C288.002289,104.903313 289.575775,97.679008 293.014343,90.752075 
	C295.422638,94.559105 294.824860,97.943138 291.446381,101.156158 
	C288.498566,103.959595 289.304749,108.658676 286.416077,111.897614 
z"/>
<path fill="#D3F2E3" opacity="1.000000" stroke="none" 
	d="
M99.744843,171.159698 
	C97.098236,163.983398 94.530365,156.359833 92.002090,148.355804 
	C96.413559,150.192001 96.517593,154.464417 97.422043,158.525162 
	C98.323715,162.573471 99.685249,166.515259 99.744843,171.159698 
z"/>
<path fill="#D8F5E8" opacity="1.000000" stroke="none" 
	d="
M259.881622,363.238159 
	C255.887726,368.023315 250.309326,370.989349 244.310303,373.857422 
	C247.235626,367.540802 253.051315,364.909607 259.881622,363.238159 
z"/>
<path fill="#D3F2E3" opacity="1.000000" stroke="none" 
	d="
M89.130577,137.744797 
	C86.669281,131.253784 84.412025,124.482643 82.163086,117.332779 
	C87.016357,120.224808 86.903313,125.967087 88.808380,130.659393 
	C89.623856,132.667953 89.196983,135.180893 89.130577,137.744797 
z"/>
<path fill="#D3F2E3" opacity="1.000000" stroke="none" 
	d="
M137.921539,289.845886 
	C135.255295,282.429291 132.650635,274.583496 130.073364,266.355438 
	C132.211304,266.520874 132.894714,268.403168 133.369263,270.077850 
	C135.176224,276.454834 137.141251,282.805634 137.921539,289.845886 
z"/>
<path fill="#D8F5E8" opacity="1.000000" stroke="none" 
	d="
M279.500946,331.072754 
	C278.231659,337.715271 275.058136,343.790588 271.422455,349.969299 
	C271.357574,342.782776 275.893890,337.250305 279.500946,331.072754 
z"/>
<path fill="#D7F4E7" opacity="1.000000" stroke="none" 
	d="
M228.339172,296.814514 
	C229.562088,288.728546 233.037704,281.026855 235.381683,272.622864 
	C235.315216,281.007172 232.836990,289.064240 228.339172,296.814514 
z"/>
<path fill="#D9F5E8" opacity="1.000000" stroke="none" 
	d="
M279.294067,134.817169 
	C281.058197,127.984138 283.113190,120.963799 285.422119,113.649261 
	C286.076874,121.142723 284.146484,128.262939 279.294067,134.817169 
z"/>
<path fill="#D3F2E3" opacity="1.000000" stroke="none" 
	d="
M111.062500,205.808685 
	C107.533264,198.519882 105.643311,190.509811 103.039124,182.361603 
	C106.656456,183.994949 105.776451,188.024094 107.068542,191.065994 
	C109.039528,195.706238 110.782883,200.470398 111.062500,205.808685 
z"/>
<path fill="#D3F2E3" opacity="1.000000" stroke="none" 
	d="
M155.137970,340.784515 
	C151.662476,335.304840 149.843384,329.022675 147.955933,322.389130 
	C152.250107,327.457214 154.673355,333.647858 155.137970,340.784515 
z"/>
<path fill="#D3F2E3" opacity="1.000000" stroke="none" 
	d="
M145.661240,314.239349 
	C143.356003,308.052185 141.156235,301.404877 138.991409,294.371857 
	C144.399933,299.519043 144.994629,306.679321 145.661240,314.239349 
z"/>
<path fill="#D7F4E7" opacity="1.000000" stroke="none" 
	d="
M222.065247,314.826660 
	C223.500275,309.540649 225.308975,304.226318 227.365677,298.615784 
	C227.445358,304.301331 227.506927,310.355255 222.065247,314.826660 
z"/>
<path fill="#D8F5E8" opacity="1.000000" stroke="none" 
	d="
M319.594055,203.996078 
	C319.933899,204.060196 319.961395,204.277512 320.025452,204.821350 
	C320.090515,207.745651 318.609344,209.911026 317.849670,212.678223 
	C315.302216,209.546661 316.898224,206.777557 319.594055,203.996078 
z"/>
<path fill="#D3F2E3" opacity="1.000000" stroke="none" 
	d="
M117.816612,227.077438 
	C116.497459,223.923553 115.256493,220.332214 114.064896,216.356018 
	C116.924530,218.978149 117.941597,222.620575 117.816612,227.077438 
z"/>
<path fill="#D7F4E7" opacity="1.000000" stroke="none" 
	d="
M349.239685,114.438271 
	C349.435974,115.087616 349.403656,115.381996 349.078003,115.837280 
	C348.478760,116.504791 348.512390,117.170219 348.213867,118.048996 
	C348.118134,118.347191 348.159302,118.715057 348.048035,118.862968 
	C347.664917,119.287773 347.433594,119.595177 347.413452,120.167336 
	C347.584045,120.401558 347.576508,120.429710 347.565857,120.440300 
	C344.068085,117.643654 345.499237,115.331383 348.881287,113.317032 
	C349.368622,113.685303 349.264008,113.892441 349.239685,114.438271 
z"/>
<path fill="#D8F5E8" opacity="1.000000" stroke="none" 
	d="
M265.657745,358.335297 
	C265.233704,358.715515 264.991699,358.916687 264.709167,359.403168 
	C264.284210,359.730286 264.030792,359.933105 263.768921,360.462585 
	C262.747375,361.496185 261.809052,362.296631 260.577637,363.196533 
	C260.477142,359.962463 262.845856,358.455505 265.798676,357.104858 
	C266.027405,357.406403 265.905518,357.747589 265.657745,358.335297 
z"/>
<path fill="#D7F4E7" opacity="1.000000" stroke="none" 
	d="
M213.200851,317.383301 
	C215.437988,317.166718 217.936371,317.613556 220.512955,315.894928 
	C219.438034,320.477081 216.492950,319.354675 213.200851,317.383301 
z"/>
<path fill="#D6F4E6" opacity="1.000000" stroke="none" 
	d="
M346.640625,122.173721 
	C346.573547,123.672432 346.206360,125.367416 345.786804,127.432289 
	C345.325775,128.742722 344.917084,129.683258 344.251953,130.811523 
	C343.929352,127.892448 343.786774,124.764862 346.640625,122.173721 
z"/>
<path fill="#D7F4E7" opacity="1.000000" stroke="none" 
	d="
M351.626465,107.083435 
	C351.968109,108.968048 351.076385,110.660484 350.007202,112.670288 
	C349.728058,113.137825 349.593292,113.276894 349.243591,113.220657 
	C349.028595,113.025345 349.006134,113.005028 348.994629,112.994087 
	C349.274780,110.861336 349.432220,108.685791 351.626465,107.083435 
z"/>
<path fill="#D8F5E8" opacity="1.000000" stroke="none" 
	d="
M291.783630,293.206024 
	C292.209106,295.051727 291.243042,296.812927 290.330048,298.859314 
	C290.056519,297.052734 289.616119,294.932617 291.783630,293.206024 
z"/>
<path fill="#D3F2E3" opacity="1.000000" stroke="none" 
	d="
M147.867523,320.962708 
	C147.190369,319.815247 146.578964,318.265259 145.999207,316.352478 
	C148.391342,316.794617 147.834167,318.813995 147.867523,320.962708 
z"/>
<path fill="#D3F2E3" opacity="1.000000" stroke="none" 
	d="
M82.030304,115.669205 
	C81.303925,114.273811 80.632751,112.493896 79.997131,110.348343 
	C82.118385,111.207428 81.964691,113.299194 82.030304,115.669205 
z"/>
<path fill="#D9F5E8" opacity="1.000000" stroke="none" 
	d="
M293.875000,90.401001 
	C294.123749,89.058044 295.250031,88.504639 296.705963,87.995895 
	C296.682556,89.530380 296.046600,90.702873 293.875000,90.401001 
z"/>
<path fill="#D3F2E3" opacity="1.000000" stroke="none" 
	d="
M101.745544,177.219971 
	C101.117828,176.306488 100.575615,174.996994 100.062035,173.330719 
	C102.038223,173.639130 101.922676,175.236969 101.745544,177.219971 
z"/>
<path fill="#D3F2E3" opacity="1.000000" stroke="none" 
	d="
M112.763092,211.195908 
	C112.423378,210.930695 112.140022,210.317123 111.890175,209.356369 
	C112.222275,209.621979 112.520866,210.234756 112.763092,211.195908 
z"/>
<path fill="#D6F4E6" opacity="1.000000" stroke="none" 
	d="
M343.593170,132.186798 
	C343.696960,132.546173 343.591949,133.116653 343.261749,133.886490 
	C343.152496,133.523193 343.268433,132.960556 343.593170,132.186798 
z"/>
<path fill="#D3F2E3" opacity="1.000000" stroke="none" 
	d="
M91.909622,146.929626 
	C91.569092,146.705292 91.262642,146.163666 91.001556,145.299561 
	C91.345840,145.522156 91.644775,146.067245 91.909622,146.929626 
z"/>
<path fill="#D7F4E7" opacity="1.000000" stroke="none" 
	d="
M155.256546,145.736832 
	C155.591522,146.017899 155.863434,146.656509 156.101807,147.651428 
	C155.776657,147.369949 155.485077,146.732162 155.256546,145.736832 
z"/>
<path fill="#D3F2E3" opacity="1.000000" stroke="none" 
	d="
M138.883301,292.983398 
	C138.549118,292.749268 138.256912,292.194092 138.008179,291.313873 
	C138.342865,291.546661 138.634064,292.104492 138.883301,292.983398 
z"/>
<path fill="#D3F2E3" opacity="1.000000" stroke="none" 
	d="
M102.634491,180.339783 
	C102.404182,180.295609 102.202026,179.947144 102.040176,179.289597 
	C102.274544,179.332169 102.468597,179.683853 102.634491,180.339783 
z"/>
<path fill="#D9F5E8" opacity="1.000000" stroke="none" 
	d="
M352.765259,104.064903 
	C352.931244,104.163124 352.958588,104.348778 352.843201,104.777222 
	C352.439575,104.753090 352.414978,104.463875 352.765259,104.064903 
z"/>
<path fill="#D3F2E3" opacity="1.000000" stroke="none" 
	d="
M90.619659,143.354584 
	C90.390030,143.305939 90.192245,142.951736 90.040726,142.286987 
	C90.275162,142.333954 90.463333,142.691483 90.619659,143.354584 
z"/>
<path fill="#D9F5E8" opacity="1.000000" stroke="none" 
	d="
M278.219360,137.755936 
	C278.060303,137.589279 278.093018,137.171646 278.339172,136.513947 
	C278.505463,136.684235 278.458344,137.094604 278.219360,137.755936 
z"/>
<path fill="#D6F4E6" opacity="1.000000" stroke="none" 
	d="
M342.648834,135.197220 
	C342.795044,135.362427 342.754425,135.746933 342.493317,136.330124 
	C342.335907,136.158051 342.398956,135.787277 342.648834,135.197220 
z"/>
<path fill="#D8F5E8" opacity="1.000000" stroke="none" 
	d="
M270.920227,350.250427 
	C271.030670,350.456482 270.899109,350.828796 270.494934,351.336365 
	C270.374329,351.119995 270.526306,350.768341 270.920227,350.250427 
z"/>
<path fill="#D8F5E8" opacity="1.000000" stroke="none" 
	d="
M241.885223,374.640930 
	C241.867981,374.842957 241.716400,374.947693 241.288712,375.039612 
	C241.122742,374.659546 241.368835,374.498474 241.885223,374.640930 
z"/>
<path fill="#D3F2E3" opacity="1.000000" stroke="none" 
	d="
M159.785797,350.065796 
	C159.559723,350.086365 159.284317,349.834198 158.996506,349.290833 
	C159.234894,349.264130 159.485687,349.528595 159.785797,350.065796 
z"/>
<path fill="#D7F4E7" opacity="1.000000" stroke="none" 
	d="
M136.136047,89.193024 
	C136.330109,89.107948 136.657181,89.241631 137.064774,89.641289 
	C136.853210,89.742096 136.561127,89.576935 136.136047,89.193024 
z"/>
<path fill="#D9F5E8" opacity="1.000000" stroke="none" 
	d="
M352.080811,106.228958 
	C352.386810,106.315826 352.404297,106.524475 352.100586,106.840256 
	C351.856415,106.731369 351.860718,106.532494 352.080811,106.228958 
z"/>
<path fill="#107A44" opacity="1.000000" stroke="none" 
	d="
M225.137741,381.452332 
	C225.177597,381.530579 224.839966,381.554199 224.839966,381.554199 
	C224.839966,381.554199 225.097885,381.374054 225.137741,381.452332 
z"/>
<path fill="#D6F4E6" opacity="1.000000" stroke="none" 
	d="
M348.340454,118.114067 
	C348.255951,117.734398 348.393799,117.121613 348.732300,116.261642 
	C348.809540,116.636620 348.686127,117.258781 348.340454,118.114067 
z"/>
<path fill="#D6F4E6" opacity="1.000000" stroke="none" 
	d="
M349.090424,113.465088 
	C349.028595,113.025345 349.445557,113.008568 349.654175,113.003662 
	C349.829071,113.428284 349.795319,113.857819 349.540802,114.532150 
	C349.264099,114.486252 349.208191,114.195541 349.090424,113.465088 
z"/>
<path fill="#D6F4E6" opacity="1.000000" stroke="none" 
	d="
M347.730164,120.197952 
	C347.603668,120.073196 347.623291,119.744827 347.789856,119.213669 
	C348.024689,119.345322 348.004517,119.673141 347.730164,120.197952 
z"/>
</svg>